<svg width="236" height="260" fill="none" xmlns="http://www.w3.org/2000/svg"><mask id="path-1-outside-1_3495_3196" maskUnits="userSpaceOnUse" x="12.99" y="4.502" width="41.098" height="253.315" fill="#000"><path fill="#fff" d="M12.99 4.502h41.098v253.315H12.99z"/><path d="M15.092 17.126 15.007 6.9l35.004 11.233.107 12.954-34.812 11.812-.085-10.227 25.231-7.846-.002-.272-25.358-7.427Zm13.756-2.023.16 19.227-7.09.059-.16-19.227 7.09-.059ZM15.334 46.26l34.907-.29.126 15.137c.022 2.659-.317 4.894-1.018 6.707-.701 1.824-1.7 3.202-3 4.133-1.3.943-2.835 1.421-4.608 1.436-1.284.01-2.456-.264-3.518-.823a7.524 7.524 0 0 1-2.678-2.33c-.713-1.006-1.212-2.183-1.496-3.533l-.34.002c-.045 1.5-.414 2.868-1.109 4.1a7.836 7.836 0 0 1-2.856 2.956c-1.21.738-2.639 1.113-4.286 1.127-1.91.016-3.612-.47-5.11-1.458-1.496-.976-2.678-2.375-3.545-4.198-.868-1.822-1.312-4-1.333-6.534l-.136-16.432Zm7.646 9.415.037 4.431c.013 1.591.319 2.782.916 3.572.609.79 1.498 1.181 2.669 1.171.818-.007 1.51-.2 2.075-.58.565-.38.992-.917 1.282-1.612.29-.685.43-1.51.422-2.475l-.038-4.569-7.363.062Zm13.227-.11.032 3.886c.007.83.144 1.561.41 2.196.267.634.646 1.125 1.138 1.473.503.36 1.112.536 1.828.53 1.08-.008 1.9-.402 2.462-1.18.573-.777.855-1.756.845-2.938l-.033-4.023-6.682.056Zm-2.873 56.429c-3.886.032-7.17-.696-9.854-2.185-2.671-1.49-4.705-3.513-6.101-6.069-1.385-2.557-2.09-5.415-2.117-8.574-.026-3.182.637-6.062 1.99-8.642 1.366-2.568 3.372-4.619 6.018-6.152 2.658-1.522 5.919-2.3 9.782-2.331 3.887-.033 7.166.69 9.837 2.168 2.683 1.49 4.717 3.507 6.101 6.052 1.397 2.557 2.108 5.426 2.134 8.608.027 3.159-.637 6.028-1.99 8.607-1.343 2.58-3.343 4.636-6 6.17-2.647 1.533-5.914 2.316-9.8 2.348Zm-.08-9.75c2.09-.017 3.85-.31 5.276-.879 1.439-.557 2.523-1.379 3.253-2.464.74-1.075 1.105-2.396 1.092-3.964-.013-1.568-.4-2.889-1.158-3.962-.748-1.062-1.845-1.866-3.293-2.41-1.436-.534-3.2-.792-5.29-.775-2.091.018-3.856.305-5.295.862-1.427.57-2.511 1.39-3.252 2.465-.73 1.086-1.088 2.412-1.075 3.98.013 1.569.393 2.884 1.14 3.946.76 1.073 1.857 1.877 3.293 2.41 1.448.545 3.217.809 5.308.791Zm17.742 34.648.078 9.477-22.362.186c-2.66.022-4.966-.595-6.92-1.852-1.942-1.245-3.45-2.994-4.526-5.247-1.064-2.252-1.609-4.873-1.633-7.861-.025-3.012.475-5.652 1.502-7.922 1.038-2.27 2.518-4.044 4.439-5.321 1.933-1.266 4.229-1.91 6.888-1.933l22.362-.185.08 9.477-21.546.179c-1.08.009-2.043.255-2.891.74a5.16 5.16 0 0 0-1.961 1.993c-.47.856-.7 1.824-.692 2.904.01 1.091.256 2.055.74 2.891a5.163 5.163 0 0 0 1.994 1.961c.856.47 1.824.701 2.903.692l21.545-.179Zm-7.528 13.09 7.636-.063.252 30.34-7.637.063-.087-10.5-27.271.227-.078-9.341 27.272-.226-.087-10.5Zm8.168 64.064.079 9.477-22.363.185c-2.66.022-4.966-.595-6.92-1.851-1.941-1.246-3.45-2.995-4.526-5.247-1.064-2.253-1.609-4.873-1.633-7.862-.025-3.011.476-5.652 1.502-7.922 1.038-2.27 2.518-4.043 4.44-5.321 1.932-1.266 4.228-1.91 6.887-1.932l22.363-.185.078 9.476-21.544.179c-1.08.009-2.044.256-2.892.74a5.163 5.163 0 0 0-1.961 1.994c-.47.856-.7 1.824-.692 2.903.01 1.091.256 2.055.74 2.892a5.162 5.162 0 0 0 1.994 1.961c.856.47 1.824.701 2.903.692l21.545-.179Zm-10.637 32.889c1.136-.1 2.019-.534 2.649-1.3.63-.756.939-1.9.926-3.434-.008-.978-.134-1.778-.378-2.401-.232-.611-.549-1.063-.949-1.356a2.317 2.317 0 0 0-1.367-.448c-.42-.02-.8.057-1.14.231-.328.184-.627.471-.897.859-.258.389-.492.885-.703 1.489-.211.604-.398 1.322-.562 2.153l-.59 2.868c-.393 1.935-.919 3.593-1.578 4.974-.659 1.38-1.44 2.512-2.341 3.394a8.454 8.454 0 0 1-3.018 1.952c-1.122.429-2.347.655-3.676.678-2.296.008-4.244-.55-5.844-1.673-1.6-1.123-2.824-2.738-3.671-4.845-.847-2.095-1.283-4.62-1.307-7.575-.026-3.034.401-5.685 1.28-7.954.88-2.257 2.245-4.019 4.099-5.284 1.864-1.254 4.257-1.899 7.177-1.935l.075 9c-1.068.066-1.963.34-2.687.824-.723.483-1.269 1.158-1.636 2.025-.368.878-.547 1.919-.537 3.123.008 1.012.14 1.857.396 2.537.256.68.607 1.194 1.053 1.543.446.348.953.526 1.521.532a2.146 2.146 0 0 0 1.393-.54c.407-.333.766-.881 1.078-1.645.323-.764.621-1.795.895-3.093l.72-3.483c.646-3.096 1.744-5.543 3.298-7.34 1.565-1.786 3.71-2.685 6.438-2.696 2.216-.03 4.158.545 5.827 1.725 1.68 1.19 2.995 2.844 3.945 4.961.95 2.129 1.435 4.574 1.458 7.335.024 2.818-.428 5.26-1.354 7.324-.926 2.065-2.242 3.661-3.949 4.789-1.695 1.139-3.684 1.724-5.968 1.754l-.076-9.068Z"/></mask><path d="m15.092 17.126-1 .009.006.742.713.21.28-.96ZM15.007 6.9l.306-.952-1.317-.422.011 1.383 1-.009Zm35.004 11.233 1-.008-.007-.723-.688-.221-.306.952Zm.107 12.954.321.947.685-.232-.006-.723-1 .008ZM15.306 42.898l-1 .009.011 1.383 1.31-.445-.321-.947Zm-.085-10.227-.297-.955-.71.221.007.743 1-.009Zm25.231-7.846.297.955.71-.22-.007-.743-1 .008Zm-.002-.272 1-.009-.006-.742-.713-.209-.281.96Zm-11.602-9.45 1-.008-.008-1-1 .008.008 1Zm.16 19.227.008 1 1-.009-.008-1-1 .009Zm-7.09.059-1 .008.008 1 1-.008-.009-1Zm-.16-19.227-.009-1-1 .008.009 1 1-.008Zm-5.666 1.956-.085-10.227-2 .017.085 10.227 2-.017Zm-1.39-9.266 35.003 11.232.611-1.904L15.313 5.947 14.7 7.852ZM49.01 18.14l.107 12.955 2-.017-.108-12.954-2 .017Zm.786 12L14.984 41.95l.643 1.894 34.812-11.812-.642-1.894ZM16.306 42.89l-.085-10.227-2 .017.085 10.227 2-.017Zm-.788-9.264 25.231-7.846-.594-1.91-25.231 7.846.594 1.91Zm25.934-8.809-.002-.273-2 .017.002.273 2-.017Zm-.721-1.224-25.358-7.426-.562 1.92 25.358 7.425.562-1.919Zm-12.883-8.482.16 19.227 2-.017-.16-19.226-2 .016ZM29 33.33l-7.091.059.017 2 7.09-.06-.016-2Zm-6.083 1.05-.16-19.226-2 .016.16 19.227 2-.017Zm-1.151-18.218 7.09-.059-.016-2-7.09.059.016 2ZM15.334 46.26l-.009-1-1 .009.009 1 1-.009Zm34.907-.29 1-.008-.008-1-1 .009.009 1Zm-.892 21.844-.933-.36v.002l.933.358Zm-3 4.133-.583-.813-.004.004.587.81Zm-8.126.613.466-.885-.007-.004-.459.889Zm-2.678-2.33-.816.578.004.006.812-.584Zm-1.496-3.533.979-.206-.169-.801-.818.007.008 1Zm-.34.002-.009-1-.963.008-.028.963 1 .03ZM32.6 70.8l-.871-.49-.003.006.874.485Zm-2.856 2.956-.517-.856-.003.002.52.854Zm-9.395-.33.55-.835-.004-.003-.546.837Zm-3.546-4.199.902-.43-.902.43Zm6.177-13.551-.008-1-1 .008.008 1 1-.008Zm.953 8.003-.798.603.006.007.792-.61Zm6.026-1.021-.921-.39-.002.005.923.385Zm.384-7.044 1-.008-.008-1-1 .009.008 1Zm5.864-.048-.008-1-1 .008.008 1 1-.008Zm.443 6.082-.922.387.922-.387Zm1.137 1.473.581-.813-.003-.003-.578.816Zm4.29-.65-.805-.593-.006.008.811.586Zm.812-6.96 1-.009-.009-1-1 .008.009 1Zm-27.547-8.25 34.908-.29-.017-2-34.908.29.017 2Zm33.9-1.281.125 15.136 2-.017-.125-15.136-2 .017Zm.125 15.136c.022 2.576-.309 4.678-.95 6.339l1.864.72c.76-1.964 1.109-4.334 1.086-7.076l-2 .017Zm-.952 6.34c-.646 1.683-1.54 2.885-2.649 3.68l1.166 1.625c1.49-1.068 2.595-2.622 3.35-4.587l-1.867-.718Zm-2.653 3.683c-1.113.807-2.442 1.232-4.029 1.245l.017 2c1.958-.016 3.701-.549 5.186-1.626l-1.174-1.62Zm-4.029 1.245c-1.13.01-2.139-.23-3.044-.708l-.932 1.77c1.218.642 2.555.95 3.993.938l-.017-2Zm-3.051-.712a6.526 6.526 0 0 1-2.326-2.026l-1.623 1.17a8.524 8.524 0 0 0 3.031 2.634l.918-1.778Zm-2.322-2.02c-.624-.88-1.073-1.928-1.332-3.16l-1.957.412c.308 1.468.857 2.775 1.658 3.905l1.631-1.157Zm-2.319-3.954-.34.003.016 2 .34-.003-.016-2Zm-1.332.973c-.04 1.349-.37 2.556-.98 3.64l1.743.98c.778-1.382 1.187-2.909 1.236-4.56l-2-.06Zm-.984 3.645a6.836 6.836 0 0 1-2.498 2.584l1.034 1.712a8.835 8.835 0 0 0 3.214-3.327l-1.75-.969Zm-2.501 2.587c-1.032.628-2.278.968-3.774.98l.016 2c1.799-.015 3.41-.427 4.798-1.273l-1.04-1.707Zm-3.774.98c-1.724.014-3.23-.421-4.55-1.293l-1.102 1.67c1.674 1.104 3.574 1.64 5.668 1.623l-.017-2Zm-4.555-1.295c-1.323-.864-2.39-2.112-3.19-3.79l-1.805.859c.936 1.966 2.232 3.516 3.903 4.606l1.092-1.675Zm-3.19-3.79c-.79-1.662-1.215-3.69-1.235-6.114l-2 .017c.022 2.644.486 4.973 1.43 6.956l1.806-.86Zm-1.235-6.114-.136-16.43-2 .016.136 16.43 2-.016Zm5.51-7 .037 4.431 2-.016-.037-4.432-2 .017Zm.037 4.431c.014 1.686.334 3.13 1.118 4.167l1.596-1.206c-.41-.543-.702-1.48-.714-2.977l-2 .017Zm1.124 4.175c.834 1.083 2.047 1.572 3.47 1.56l-.017-2c-.919.008-1.486-.283-1.869-.781l-1.584 1.22Zm3.47 1.56c.973-.008 1.866-.24 2.623-.75l-1.115-1.66c-.372.25-.863.405-1.525.41l.016 2Zm2.623-.75c.745-.5 1.291-1.201 1.648-2.058l-1.846-.769c-.223.535-.532.909-.917 1.168l1.115 1.66Zm1.646-2.052c.356-.842.51-1.81.501-2.874l-2 .017c.008.868-.12 1.55-.343 2.077l1.842.78Zm.501-2.874-.038-4.568-2 .017.038 4.568 2-.017Zm-1.046-5.56-7.363.062.016 2 7.364-.062-.017-2Zm4.872.96.032 3.886 2-.016-.032-3.886-2 .016Zm.032 3.886c.008.934.162 1.799.489 2.575l1.843-.775c-.207-.492-.326-1.09-.332-1.816l-2 .016Zm.489 2.575c.328.781.816 1.431 1.48 1.902l1.157-1.632c-.319-.226-.589-.558-.794-1.045l-1.843.775Zm1.477 1.9c.701.5 1.526.724 2.418.716l-.016-2c-.54.005-.934-.126-1.239-.343l-1.163 1.627Zm2.418.716c1.352-.01 2.491-.523 3.265-1.594l-1.622-1.17c-.35.484-.852.758-1.66.764l.017 2Zm3.259-1.586c.728-.987 1.051-2.192 1.04-3.54l-2 .016c.008 1.015-.232 1.77-.65 2.337l1.61 1.187Zm1.04-3.54-.033-4.023-2 .017.033 4.022 2-.016Zm-1.042-5.015-6.681.056.016 2 6.682-.056-.017-2Zm-19.4 55.3-.486.873.001.001.485-.874Zm-6.101-6.069-.88.476.002.003.878-.479Zm-.126-17.216-.883-.47-.003.006.886.464Zm6.017-6.152-.497-.868-.004.003.501.865Zm19.619-.163.485-.874-.001-.001-.484.875Zm6.101 6.052-.878.478v.001l.878-.48Zm.143 17.215-.885-.464-.002.003.887.461Zm-6 6.17-.5-.867-.001.001.501.866Zm-4.603-8.281-.361-.932-.009.003.37.929Zm3.253-2.464-.824-.568-.006.01.83.558Zm-.066-7.926-.818.575.001.002.817-.577Zm-3.293-2.41.352-.936-.004-.002-.348.938Zm-10.585.087-.361-.932-.009.003.37.93Zm-3.252 2.465-.823-.568-.007.01.83.558Zm.066 7.926-.818.575.001.002.817-.577Zm3.292 2.41.353-.936-.004-.001-.349.937Zm5.38 9.541c-3.758.031-6.862-.674-9.36-2.06l-.97 1.749c2.87 1.592 6.334 2.344 10.347 2.311l-.016-2Zm-9.358-2.059c-2.515-1.402-4.41-3.292-5.71-5.675l-1.756.959c1.491 2.731 3.665 4.887 6.492 6.463l.974-1.747Zm-5.709-5.672c-1.3-2.4-1.971-5.095-1.996-8.105l-2 .016c.027 3.308.768 6.329 2.237 9.042l1.759-.953Zm-1.996-8.105c-.025-3.033.606-5.749 1.876-8.17l-1.77-.928c-1.438 2.738-2.133 5.784-2.106 9.114l2-.016Zm1.874-8.164c1.273-2.395 3.142-4.312 5.636-5.757l-1.003-1.73c-2.8 1.622-4.942 3.806-6.4 6.548l1.767.939Zm5.631-5.754c2.475-1.418 5.558-2.168 9.294-2.2l-.017-2c-3.99.034-7.43.837-10.27 2.464l.993 1.736Zm9.294-2.2c3.76-.03 6.859.67 9.344 2.044l.968-1.75c-2.858-1.581-6.317-2.327-10.329-2.293l.017 2Zm9.343 2.043c2.527 1.403 4.42 3.287 5.708 5.656l1.757-.956c-1.481-2.722-3.656-4.873-6.495-6.448l-.97 1.748Zm5.709 5.657c1.31 2.4 1.986 5.104 2.011 8.137l2-.017c-.027-3.33-.774-6.364-2.256-9.078l-1.755.958Zm2.011 8.137c.026 3.008-.605 5.713-1.876 8.135l1.77.929c1.437-2.738 2.134-5.771 2.106-9.08l-2 .016Zm-1.878 8.138c-1.25 2.4-3.11 4.321-5.613 5.764l1 1.733c2.813-1.623 4.952-3.816 6.387-6.574l-1.774-.923Zm-5.614 5.765c-2.461 1.426-5.547 2.183-9.306 2.214l.016 2c4.014-.033 7.46-.842 10.293-2.483l-1.003-1.731Zm-9.37-5.536c2.172-.018 4.063-.322 5.638-.95l-.74-1.858c-1.279.51-2.906.792-4.915.808l.017 2Zm5.63-.946c1.594-.618 2.857-1.555 3.72-2.84l-1.66-1.115c-.596.887-1.5 1.593-2.783 2.09l.723 1.865Zm3.714-2.83c.88-1.275 1.283-2.808 1.269-4.54l-2 .017c.011 1.405-.313 2.515-.916 3.388l1.647 1.136Zm1.269-4.54c-.015-1.731-.444-3.26-1.342-4.53L40.9 91.551c.62.877.963 1.989.975 3.393l2-.016Zm-1.34-4.529c-.884-1.255-2.16-2.169-3.759-2.77l-.704 1.871c1.296.488 2.216 1.182 2.827 2.05l1.636-1.15Zm-3.763-2.772c-1.583-.588-3.476-.855-5.647-.837l.017 2c2.01-.017 3.645.233 4.934.712l.696-1.875Zm-5.647-.837c-2.172.018-4.064.316-5.647.93l.722 1.865c1.294-.501 2.931-.778 4.942-.795l-.017-2Zm-5.656.933c-1.577.629-2.834 1.562-3.705 2.826l1.646 1.136c.61-.885 1.522-1.595 2.8-2.104l-.741-1.858Zm-3.712 2.836c-.863 1.284-1.26 2.818-1.245 4.547l2-.017c-.012-1.407.308-2.527.905-3.414l-1.66-1.116Zm-1.245 4.547c.014 1.728.436 3.252 1.323 4.512l1.635-1.15c-.608-.865-.947-1.97-.958-3.379l-2 .017Zm1.324 4.514c.894 1.264 2.168 2.179 3.761 2.77l.697-1.874c-1.28-.476-2.2-1.168-2.825-2.05l-1.633 1.154Zm3.757 2.769c1.596.6 3.495.873 5.668.855l-.016-2c-2.008.017-3.648-.238-4.947-.727l-.705 1.872Zm23.403 34.503 1-.008-.009-1-1 .008.009 1Zm.078 9.477.009 1 1-.008-.009-1-1 .008Zm-29.281-1.666.54-.841v-.001l-.54.842Zm-4.527-5.247-.904.428.002.003.902-.431Zm-.131-15.783-.91-.416-.001.004.911.412Zm4.439-5.321-.548-.837-.006.004.554.833Zm29.25-2.118 1-.008-.008-1-1 .008.008 1Zm.08 9.477.007 1 1-.008-.008-1-1 .008Zm-24.437.919-.496-.869-.005.003.5.866Zm-1.961 1.993-.874-.486-.003.005.877.481Zm.048 5.795-.866.501.866-.501Zm1.994 1.961-.487.874.005.003.482-.877Zm23.448.522.078 9.477 2-.017-.078-9.477-2 .017Zm1.07 8.468-22.363.186.017 2 22.363-.186-.017-2Zm-22.363.186c-2.493.021-4.602-.556-6.37-1.693l-1.081 1.682c2.14 1.377 4.643 2.034 7.468 2.011l-.017-2Zm-6.37-1.694c-1.773-1.136-3.162-2.737-4.165-4.836l-1.805.862c1.15 2.407 2.778 4.304 4.89 5.658l1.08-1.684Zm-4.163-4.832c-.991-2.098-1.514-4.571-1.538-7.443l-2 .017c.026 3.105.593 5.873 1.73 8.281l1.808-.855Zm-1.538-7.443c-.024-2.896.458-5.388 1.414-7.501l-1.822-.824c-1.098 2.426-1.617 5.215-1.591 8.342l2-.017Zm1.412-7.497c.968-2.115 2.33-3.739 4.084-4.905l-1.108-1.665c-2.089 1.389-3.686 3.313-4.794 5.738l1.818.832Zm4.078-4.901c1.75-1.146 3.851-1.748 6.348-1.769l-.017-1.999c-2.82.023-5.31.709-7.427 2.095l1.096 1.673Zm6.348-1.769 22.363-.185-.017-2-22.363.186.017 1.999Zm21.355-1.177.078 9.477 2-.016-.079-9.477-2 .016Zm1.07 8.469-21.545.179.017 2 21.544-.179-.016-2Zm-21.545.179c-1.232.01-2.367.293-3.38.871l.992 1.737c.685-.391 1.478-.601 2.405-.608l-.017-2Zm-3.384.874a6.165 6.165 0 0 0-2.334 2.373l1.748.973a4.162 4.162 0 0 1 1.588-1.615l-1.002-1.731Zm-2.337 2.378c-.56 1.021-.825 2.161-.815 3.393l2-.017c-.008-.926.189-1.723.568-2.413l-1.753-.963Zm-.815 3.393c.01 1.241.293 2.379.874 3.384l1.732-1.001c-.387-.669-.598-1.459-.606-2.4l-2 .017Zm.874 3.384a6.165 6.165 0 0 0 2.373 2.334l.973-1.748a4.164 4.164 0 0 1-1.614-1.587l-1.732 1.001Zm2.378 2.337c1.022.561 2.161.825 3.393.815l-.016-2c-.927.008-1.723-.189-2.414-.568l-.963 1.753Zm3.393.815 21.545-.179-.017-2-21.544.179.016 2Zm14.009 11.911-.009-1-1 .009.009 1 1-.009Zm7.636-.063 1-.008-.008-1-1 .008.008 1Zm.252 30.34.008 1 1-.009-.008-1-1 .009Zm-7.637.063-1 .008.009 1 1-.008-.009-1Zm-.087-10.5 1-.008-.008-1-1 .008.008 1Zm-27.271.227-1 .008.008 1 1-.008-.008-1Zm-.078-9.341-.008-1-1 .008.008 1 1-.008Zm27.272-.226.008 1 1-.008-.008-1-1 .008Zm-.079-9.5 7.636-.063-.016-2-7.636.063.016 2Zm6.628-1.055.252 30.34 2-.017-.252-30.339-2 .016Zm1.243 29.332-7.636.063.017 2 7.636-.063-.017-2Zm-6.628 1.055-.087-10.5-2 .017.088 10.499 2-.016Zm-1.095-11.492-27.272.227.017 2 27.272-.227-.017-2Zm-26.263 1.218-.078-9.34-2 .016.078 9.341 2-.017Zm-1.07-8.332 27.272-.226-.016-2-27.272.226.016 2Zm28.264-1.234-.087-10.5-2 .017.087 10.499 2-.016Zm7.081 53.572 1-.008-.008-1-1 .008.008 1Zm.079 9.477.008 1 1-.008-.008-1-1 .008Zm-29.282-1.666.54-.841v-.001l-.54.842Zm-4.527-5.247-.904.427.002.004.902-.431Zm-.13-15.784-.91-.415-.002.003.911.412Zm4.438-5.321-.548-.836-.006.004.554.832Zm29.25-2.117 1-.009-.008-1-1 .009.009 1Zm.08 9.476.008 1 1-.008-.009-1-1 .008Zm-24.437.919-.496-.868-.005.003.5.865Zm-1.961 1.994-.874-.487-.003.005.877.482Zm.048 5.795-.866.501.866-.501Zm1.994 1.961-.487.874.005.002.482-.876Zm23.448.521.079 9.477 2-.016-.08-9.477-1.999.016Zm1.07 8.469-22.363.185.017 2 22.363-.185-.017-2Zm-22.363.185c-2.493.021-4.602-.556-6.37-1.692l-1.081 1.682c2.14 1.376 4.643 2.034 7.468 2.01l-.017-2Zm-6.37-1.693c-1.773-1.137-3.162-2.737-4.165-4.836l-1.804.862c1.149 2.406 2.777 4.303 4.889 5.657l1.08-1.683Zm-4.163-4.832c-.99-2.098-1.514-4.571-1.537-7.443l-2 .017c.025 3.104.592 5.873 1.729 8.28l1.808-.854Zm-1.537-7.443c-.024-2.896.457-5.388 1.413-7.502l-1.822-.824c-1.098 2.427-1.617 5.216-1.591 8.343l2-.017Zm1.412-7.498c.967-2.115 2.33-3.738 4.083-4.904l-1.108-1.665c-2.089 1.388-3.685 3.313-4.794 5.738l1.819.831Zm4.077-4.9c1.75-1.146 3.851-1.748 6.348-1.769l-.017-2c-2.82.024-5.31.709-7.427 2.096l1.096 1.673Zm6.348-1.769 22.363-.185-.017-2-22.363.185.017 2Zm21.355-1.177.078 9.477 2-.017-.078-9.477-2 .017Zm1.07 8.469-21.545.178.017 2 21.544-.179-.016-1.999Zm-21.545.178c-1.232.011-2.367.294-3.379.872l.992 1.737c.684-.391 1.477-.601 2.404-.609l-.017-2Zm-3.384.875a6.162 6.162 0 0 0-2.334 2.372l1.748.973a4.166 4.166 0 0 1 1.588-1.614l-1.002-1.731Zm-2.337 2.377c-.56 1.022-.825 2.161-.815 3.394l2-.017c-.008-.927.19-1.723.569-2.414l-1.754-.963Zm-.815 3.394c.01 1.241.293 2.379.874 3.384l1.732-1.002c-.387-.669-.598-1.459-.606-2.399l-2 .017Zm.874 3.384a6.172 6.172 0 0 0 2.373 2.334l.973-1.748a4.16 4.16 0 0 1-1.614-1.588l-1.732 1.002Zm2.378 2.336c1.022.561 2.161.826 3.393.816l-.016-2c-.927.007-1.723-.189-2.414-.569l-.963 1.753Zm3.393.816 21.545-.179-.016-2-21.545.179.017 2Zm10.9 31.71-.088-.996-.92.081.008.923 1-.008Zm2.649-1.3-.768-.641-.005.006.773.635Zm.548-5.835-.935.355.004.01.931-.365Zm-.949-1.356.59-.807-.59.807Zm-1.367-.448-.046.999h.032l.014-.999Zm-1.14.231-.455-.891-.018.009-.018.01.49.872Zm-.897.859-.821-.569-.006.008-.006.008.833.553Zm-1.265 3.642.98.201.001-.008-.981-.193Zm-.59 2.868-.98-.201v.002l.98.199Zm-3.92 8.368-.699-.714-.004.004.704.71Zm-3.017 1.952-.35-.937-.008.003.358.934Zm-3.676.678.003 1h.013l-.016-1Zm-5.844-1.673-.575.818.575-.818Zm-3.671-4.845.928-.373-.001-.002-.927.375Zm-.027-15.529-.932-.363v.002l.932.361Zm4.099-5.284-.558-.83-.006.004.564.826Zm7.177-1.935 1-.008-.008-1.004-1.004.013.012.999Zm.075 9 .061.998.947-.058-.008-.948-1 .008Zm-2.687.824-.555-.832.555.832Zm-1.636 2.025-.921-.391-.002.004.923.387Zm-.141 5.66-.936.352.936-.352Zm1.053 1.543-.616.787.616-.787Zm1.521.532-.012 1 .021.001.02-.001-.029-1Zm1.393-.54-.633-.773-.012.01-.012.01.657.753Zm1.078-1.645-.921-.39-.005.012.926.378Zm.895-3.093.978.206v-.003l-.978-.203Zm.72-3.483-.978-.204v.001l.979.203Zm3.298-7.34-.752-.659-.005.005.757.654Zm6.438-2.696.004 1h.01l-.014-1Zm5.827 1.725.578-.816v-.001l-.578.817Zm3.945 4.961.913-.407v-.002l-.913.409Zm.104 14.659-.912-.409.912.409Zm-3.949 4.789-.551-.835-.007.005.558.83Zm-5.968 1.754-1 .008.008 1.005 1.005-.013-.013-1Zm.012-8.072c1.36-.12 2.507-.656 3.333-1.661L42.875 245c-.434.528-1.052.858-1.964.939l.176 1.992Zm3.329-1.656c.846-1.015 1.171-2.438 1.158-4.083l-2 .017c.012 1.423-.28 2.289-.694 2.785l1.536 1.281Zm1.158-4.083c-.009-1.048-.143-1.98-.447-2.756l-1.862.729c.184.47.301 1.137.309 2.044l2-.017Zm-.443-2.747c-.28-.736-.695-1.371-1.294-1.808l-1.18 1.615c.201.147.419.416.604.903l1.87-.71Zm-1.294-1.808a3.313 3.313 0 0 0-1.943-.641l-.028 1.999c.311.005.564.091.791.257l1.18-1.615Zm-1.912-.64a3.233 3.233 0 0 0-1.64.339l.91 1.781c.168-.086.373-.135.64-.122l.09-1.998Zm-1.676.358c-.489.275-.893.68-1.227 1.162l1.643 1.139c.205-.295.398-.464.565-.558l-.98-1.743Zm-1.239 1.178c-.318.478-.585 1.057-.814 1.713l1.888.659c.193-.552.394-.967.592-1.265l-1.666-1.107Zm-.814 1.713c-.23.66-.43 1.425-.6 2.289l1.963.386a14.93 14.93 0 0 1 .525-2.016l-1.888-.659Zm-.597 2.28-.59 2.869 1.959.403.59-2.869-1.96-.403Zm-.59 2.871c-.382 1.877-.886 3.453-1.501 4.742l1.804.862c.703-1.472 1.251-3.212 1.656-5.206l-1.96-.398Zm-1.501 4.742c-.62 1.296-1.336 2.325-2.139 3.111l1.4 1.429c1-.98 1.844-2.214 2.544-3.678l-1.805-.862Zm-2.143 3.115a7.467 7.467 0 0 1-2.664 1.725l.7 1.874a9.467 9.467 0 0 0 3.372-2.178l-1.408-1.421Zm-2.672 1.728c-1.002.384-2.11.591-3.335.612l.033 2c1.434-.024 2.776-.269 4.018-.745l-.716-1.867Zm-3.322.612c-2.126.007-3.863-.507-5.266-1.492l-1.149 1.637c1.798 1.262 3.957 1.863 6.422 1.855l-.007-2Zm-5.266-1.492c-1.417-.995-2.53-2.442-3.317-4.399l-1.856.746c.907 2.257 2.241 4.039 4.024 5.29l1.15-1.637Zm-3.318-4.401c-.788-1.949-1.21-4.343-1.234-7.208l-2 .017c.025 3.043.474 5.699 1.38 7.941l1.854-.75Zm-1.234-7.208c-.025-2.938.39-5.459 1.213-7.585l-1.865-.722c-.934 2.412-1.374 5.193-1.348 8.324l2-.017Zm1.212-7.583c.812-2.085 2.057-3.679 3.73-4.821l-1.127-1.652c-2.033 1.388-3.52 3.318-4.467 5.747l1.864.726Zm3.725-4.817c1.66-1.117 3.848-1.731 6.631-1.765l-.024-1.999c-3.058.037-5.655.713-7.724 2.104l1.117 1.66Zm5.619-2.756.075 8.999 2-.016-.075-9-2 .017Zm1.013 7.993c-1.204.074-2.28.388-3.18.99l1.11 1.663c.547-.365 1.262-.599 2.193-.657l-.123-1.996Zm-3.18.99c-.899.601-1.565 1.435-2.002 2.466l1.841.781c.298-.703.724-1.218 1.272-1.584l-1.111-1.663Zm-2.004 2.47c-.432 1.032-.625 2.213-.614 3.519l2-.017c-.01-1.104.155-2.004.459-2.729l-1.845-.773Zm-.614 3.519c.009 1.086.15 2.057.46 2.88l1.872-.704c-.201-.536-.324-1.256-.332-2.193l-2 .017Zm.46 2.88c.302.804.746 1.489 1.373 1.978l1.231-1.575c-.265-.208-.523-.551-.732-1.107l-1.872.704Zm1.373 1.978c.62.485 1.339.736 2.125.745l.024-2a1.454 1.454 0 0 1-.918-.32l-1.231 1.575Zm2.167.745a3.154 3.154 0 0 0 2.02-.786l-1.314-1.507a1.16 1.16 0 0 1-.765.294l.059 1.999Zm1.997-.766c.588-.482 1.027-1.203 1.37-2.041l-1.852-.756c-.281.69-.56 1.066-.785 1.25l1.267 1.547Zm1.365-2.029c.358-.848.672-1.949.952-3.277l-1.957-.412c-.267 1.268-.55 2.229-.837 2.909l1.842.78Zm.953-3.28.72-3.483-1.958-.406-.72 3.484 1.958.405Zm.72-3.482c.622-2.983 1.664-5.258 3.075-6.89l-1.513-1.308c-1.695 1.961-2.85 4.58-3.52 7.79l1.959.408Zm3.071-6.885c1.347-1.537 3.202-2.345 5.69-2.355l-.008-2c-2.967.012-5.404 1.002-7.186 3.037l1.504 1.318Zm5.7-2.355c2.023-.027 3.754.494 5.236 1.541l1.154-1.633c-1.856-1.312-4.01-1.94-6.418-1.908l.027 2Zm5.235 1.541c1.517 1.074 2.724 2.579 3.61 4.555l1.825-.819c-1.013-2.259-2.435-4.062-4.279-5.368l-1.156 1.632Zm3.61 4.553c.883 1.982 1.35 4.287 1.371 6.935l2-.016c-.024-2.874-.53-5.459-1.545-7.734l-1.827.815Zm1.371 6.935c.023 2.709-.412 5.002-1.266 6.907l1.825.818c.997-2.224 1.465-4.814 1.441-7.741l-2 .016Zm-1.266 6.907c-.857 1.91-2.056 3.351-3.588 4.363l1.102 1.669c1.882-1.243 3.316-2.995 4.31-5.214l-1.824-.818Zm-3.595 4.368c-1.515 1.018-3.31 1.556-5.424 1.584l.027 2c2.454-.033 4.638-.664 6.513-1.924l-1.116-1.66Zm-4.41 2.576-.076-9.068-2 .016.076 9.068 2-.016Z" fill="#05C2DF" mask="url('#path-1-outside-1_3495_3196')"/><mask id="path-3-outside-2_3495_3196" maskUnits="userSpaceOnUse" x="182.992" y="3.502" width="41.098" height="253.315" fill="#000"><path fill="#fff" d="M182.992 3.502h41.098v253.315h-41.098z"/><path d="M185.094 16.126 185.009 5.9l35.003 11.233.108 12.954-34.812 11.812-.085-10.227 25.231-7.846-.002-.273-25.358-7.426Zm13.756-2.023.16 19.227-7.091.058-.16-19.226 7.091-.059ZM185.335 45.26l34.908-.29.126 15.136c.022 2.66-.317 4.895-1.018 6.708-.701 1.824-1.701 3.202-3 4.133-1.299.943-2.835 1.421-4.608 1.436-1.284.01-2.457-.264-3.518-.823a7.527 7.527 0 0 1-2.679-2.33c-.713-1.006-1.211-2.184-1.495-3.533l-.341.002c-.044 1.5-.414 2.868-1.108 4.1a7.838 7.838 0 0 1-2.856 2.956c-1.21.738-2.639 1.113-4.286 1.127-1.909.016-3.612-.47-5.109-1.458-1.497-.976-2.679-2.376-3.547-4.198-.867-1.822-1.311-4-1.332-6.535l-.137-16.43Zm7.647 9.414.037 4.432c.013 1.59.318 2.782.916 3.572.609.79 1.498 1.18 2.669 1.171.818-.007 1.509-.2 2.074-.58.566-.38.993-.917 1.283-1.612.289-.685.43-1.51.422-2.476l-.038-4.568-7.363.061Zm13.227-.11.032 3.887c.007.83.144 1.561.41 2.195.267.635.646 1.126 1.138 1.474.503.36 1.112.536 1.828.53 1.079-.009 1.9-.402 2.462-1.18.573-.777.855-1.756.845-2.938l-.034-4.023-6.681.056Zm-2.873 56.43c-3.886.032-7.171-.696-9.854-2.186-2.671-1.489-4.705-3.512-6.101-6.068-1.385-2.557-2.091-5.415-2.117-8.574-.027-3.182.637-6.062 1.991-8.642 1.365-2.568 3.371-4.619 6.017-6.152 2.658-1.522 5.919-2.3 9.782-2.332 3.886-.032 7.165.691 9.837 2.169 2.683 1.49 4.717 3.506 6.101 6.052 1.397 2.556 2.108 5.426 2.134 8.607.027 3.16-.637 6.029-1.991 8.608-1.342 2.58-3.342 4.636-6 6.169-2.646 1.534-5.913 2.317-9.799 2.349Zm-.081-9.75c2.091-.017 3.85-.31 5.277-.879 1.439-.557 2.523-1.379 3.252-2.464.742-1.075 1.106-2.396 1.093-3.964-.013-1.568-.399-2.889-1.158-3.962-.748-1.062-1.845-1.866-3.293-2.41-1.436-.534-3.2-.792-5.291-.775-2.091.017-3.855.305-5.294.862-1.427.569-2.511 1.39-3.252 2.465-.73 1.085-1.088 2.412-1.075 3.98.013 1.569.393 2.884 1.14 3.946.759 1.073 1.857 1.876 3.293 2.41 1.448.545 3.217.809 5.308.791Zm17.743 34.648.078 9.477-22.363.186c-2.659.022-4.965-.595-6.919-1.852-1.942-1.245-3.451-2.994-4.526-5.247-1.064-2.252-1.609-4.873-1.634-7.861-.025-3.012.476-5.652 1.503-7.922 1.038-2.27 2.518-4.044 4.439-5.321 1.933-1.267 4.228-1.911 6.887-1.933l22.363-.185.079 9.477-21.545.179c-1.079.008-2.043.255-2.892.739a5.172 5.172 0 0 0-1.96 1.994c-.47.856-.701 1.824-.692 2.904.009 1.09.256 2.054.74 2.891a5.165 5.165 0 0 0 1.993 1.961c.857.47 1.824.701 2.904.692l21.545-.179Zm-7.528 13.09 7.636-.063.251 30.34-7.636.063-.087-10.5-27.272.227-.077-9.341 27.272-.226-.087-10.5Zm8.168 64.064.078 9.477-22.362.185c-2.659.022-4.966-.595-6.919-1.851-1.943-1.246-3.452-2.995-4.527-5.247-1.064-2.253-1.609-4.873-1.634-7.862-.025-3.011.476-5.652 1.503-7.922 1.038-2.27 2.518-4.043 4.439-5.321 1.933-1.266 4.229-1.91 6.888-1.932l22.362-.186.079 9.477-21.545.179c-1.079.009-2.043.256-2.891.74a5.161 5.161 0 0 0-1.961 1.994c-.47.856-.701 1.824-.692 2.903.009 1.091.256 2.055.74 2.892a5.168 5.168 0 0 0 1.994 1.961c.856.47 1.824.701 2.903.692l21.545-.179Zm-10.637 32.889c1.136-.1 2.019-.534 2.649-1.301.63-.755.938-1.899.926-3.433-.008-.978-.134-1.778-.378-2.401-.233-.612-.549-1.063-.949-1.356a2.324 2.324 0 0 0-1.367-.449 2.239 2.239 0 0 0-1.141.232c-.328.184-.626.471-.896.859-.258.389-.493.885-.703 1.489a15.845 15.845 0 0 0-.562 2.153l-.59 2.868c-.393 1.935-.919 3.593-1.578 4.974-.659 1.38-1.44 2.512-2.341 3.394a8.448 8.448 0 0 1-3.018 1.951c-1.122.43-2.347.656-3.677.679-2.295.007-4.243-.55-5.843-1.673-1.601-1.124-2.824-2.738-3.671-4.845-.847-2.095-1.283-4.62-1.308-7.575-.025-3.034.402-5.685 1.281-7.954.879-2.257 2.245-4.019 4.098-5.284 1.865-1.254 4.258-1.899 7.178-1.935l.075 9c-1.068.066-1.964.34-2.687.823-.723.484-1.269 1.159-1.637 2.025-.367.879-.546 1.92-.536 3.124.008 1.012.14 1.857.396 2.537.256.68.606 1.194 1.052 1.542.447.349.954.527 1.522.533a2.156 2.156 0 0 0 1.393-.54c.407-.333.766-.881 1.078-1.645.323-.764.621-1.795.894-3.093l.722-3.483c.644-3.097 1.743-5.543 3.297-7.34 1.564-1.786 3.711-2.685 6.438-2.696 2.216-.03 4.158.545 5.827 1.725 1.68 1.19 2.995 2.844 3.944 4.961.95 2.129 1.436 4.574 1.459 7.335.024 2.818-.428 5.259-1.354 7.324-.926 2.065-2.242 3.661-3.949 4.789-1.695 1.139-3.685 1.723-5.969 1.754l-.075-9.068Z"/></mask><path d="m185.094 16.126-1 .009.006.742.713.209.281-.96ZM185.009 5.9l.305-.952-1.317-.422.012 1.383 1-.009Zm35.003 11.233 1-.008-.006-.723-.688-.221-.306.952Zm.108 12.954.321.947.685-.232-.006-.723-1 .008Zm-34.812 11.812-1 .008.011 1.383 1.31-.444-.321-.947Zm-.085-10.227-.297-.955-.709.22.006.744 1-.009Zm25.231-7.846.297.955.709-.22-.006-.743-1 .008Zm-.002-.273 1-.008-.007-.742-.712-.21-.281.96Zm-11.602-9.449 1-.008-.008-1-1 .008.008 1Zm.16 19.227.008 1 1-.009-.008-1-1 .009Zm-7.091.058-1 .009.008 1 1-.009-.008-1Zm-.16-19.226-.008-1-1 .008.009 1 .999-.008Zm-5.665 1.956-.085-10.227-2 .017.085 10.227 2-.017Zm-1.391-9.266 35.004 11.232.611-1.904-35.004-11.233-.611 1.905Zm34.309 10.288.108 12.954 2-.016-.108-12.954-2 .016Zm.787 12L184.986 40.95l.643 1.894 34.812-11.812-.642-1.894Zm-33.491 12.75-.085-10.227-2 .017.085 10.226 2-.016Zm-.788-9.264 25.231-7.846-.594-1.91-25.231 7.846.594 1.91Zm25.934-8.809-.002-.273-2 .017.002.273 2-.017Zm-.721-1.224-25.358-7.426-.562 1.919 25.358 7.426.562-1.92ZM197.85 14.11l.16 19.227 2-.017-.16-19.226-2 .016Zm1.151 18.219-7.09.059.016 2 7.091-.06-.017-2Zm-6.082 1.05-.16-19.227-1.999.017.159 19.227 2-.017Zm-1.151-18.218 7.09-.059-.016-2-7.091.059.017 2Zm-6.433 30.098-.008-1-1 .009.008 1 1-.009Zm34.908-.29 1-.008-.008-1-1 .009.008 1Zm-.892 21.844-.933-.36-.001.001.934.359Zm-3 4.133-.583-.813-.005.004.588.809Zm-8.126.613.466-.885-.007-.004-.459.889Zm-2.679-2.33-.815.578.004.006.811-.584Zm-1.495-3.533.979-.206-.169-.801-.818.007.008 1Zm-.341.002-.008-1-.963.008-.028.963.999.03Zm-1.108 4.1-.871-.49-.004.006.875.485Zm-2.856 2.956-.517-.856-.004.002.521.854Zm-9.395-.33.55-.836-.004-.002-.546.837Zm-3.547-4.199.903-.43-.903.43Zm6.178-13.552-.008-1-1 .009.008 1 1-.009Zm.953 8.004-.798.603.006.007.792-.61Zm6.026-1.021-.921-.39-.003.005.924.385Zm.384-7.044 1-.008-.008-1-1 .008.008 1Zm5.864-.048-.008-1-1 .008.008 1 1-.008Zm.442 6.081-.922.388.922-.388Zm1.138 1.474.581-.814-.003-.002-.578.816Zm4.29-.65-.805-.593-.006.008.811.586Zm.811-6.96 1-.01-.008-.999-1 .008.008 1Zm-27.546-8.25 34.908-.29-.017-2-34.908.29.017 2Zm33.899-1.281.126 15.136 2-.017-.126-15.136-2 .017Zm.126 15.136c.021 2.576-.309 4.678-.951 6.338l1.865.722c.76-1.965 1.109-4.335 1.086-7.077l-2 .017Zm-.952 6.34c-.646 1.683-1.541 2.885-2.649 3.68l1.165 1.625c1.491-1.068 2.596-2.622 3.351-4.587l-1.867-.718Zm-2.654 3.683c-1.113.807-2.441 1.232-4.028 1.245l.016 2c1.958-.016 3.702-.549 5.187-1.627l-1.175-1.618Zm-4.028 1.245c-1.131.01-2.139-.23-3.044-.708l-.932 1.77c1.218.641 2.555.95 3.992.938l-.016-2Zm-3.051-.712a6.52 6.52 0 0 1-2.326-2.026l-1.623 1.17a8.53 8.53 0 0 0 3.031 2.633l.918-1.777Zm-2.322-2.02c-.625-.88-1.073-1.928-1.332-3.16l-1.958.411c.309 1.468.858 2.776 1.659 3.906l1.631-1.157Zm-2.319-3.954-.341.002.016 2 .341-.002-.016-2Zm-1.332.973c-.04 1.349-.37 2.555-.98 3.639l1.742.981c.779-1.382 1.188-2.909 1.237-4.561l-1.999-.06Zm-.984 3.645a6.836 6.836 0 0 1-2.498 2.584l1.034 1.712a8.838 8.838 0 0 0 3.214-3.327l-1.75-.969Zm-2.502 2.586c-1.031.63-2.277.968-3.774.98l.017 2c1.798-.014 3.41-.426 4.798-1.272l-1.041-1.708Zm-3.774.98c-1.724.015-3.229-.42-4.55-1.292l-1.101 1.67c1.674 1.104 3.574 1.64 5.668 1.623l-.017-2Zm-4.554-1.294c-1.323-.864-2.391-2.112-3.19-3.79l-1.806.859c.937 1.966 2.233 3.516 3.903 4.606l1.093-1.675Zm-3.19-3.79c-.79-1.662-1.215-3.69-1.235-6.114l-2 .017c.022 2.644.485 4.973 1.429 6.956l1.806-.86Zm-1.235-6.114-.137-16.431-2 .017.137 16.43 2-.016Zm5.51-7 .037 4.431 2-.016-.037-4.432-2 .017Zm.037 4.431c.014 1.686.334 3.13 1.118 4.167l1.596-1.206c-.411-.543-.702-1.481-.714-2.977l-2 .016Zm1.124 4.174c.834 1.084 2.047 1.573 3.469 1.561l-.017-2c-.918.008-1.485-.284-1.868-.781l-1.584 1.22Zm3.469 1.561c.974-.008 1.866-.24 2.624-.75l-1.115-1.66c-.372.25-.863.405-1.526.41l.017 2Zm2.624-.75c.745-.5 1.291-1.201 1.648-2.058l-1.847-.769c-.222.535-.531.909-.916 1.168l1.115 1.66Zm1.645-2.053c.357-.841.511-1.81.502-2.873l-2 .017c.008.868-.12 1.55-.343 2.077l1.841.78Zm.502-2.873-.038-4.568-2 .017.038 4.568 2-.017Zm-1.046-5.56-7.363.061.016 2 7.364-.06-.017-2Zm4.872.96.032 3.886 2-.016-.032-3.887-2 .017Zm.032 3.886c.008.934.162 1.799.488 2.575l1.844-.775c-.207-.492-.326-1.091-.332-1.816l-2 .016Zm.488 2.575c.329.781.817 1.431 1.482 1.902l1.156-1.632c-.319-.226-.589-.558-.794-1.045l-1.844.775Zm1.478 1.9c.701.5 1.526.724 2.418.716l-.016-2c-.54.005-.934-.126-1.239-.344l-1.163 1.628Zm2.418.716c1.352-.011 2.491-.523 3.264-1.594l-1.621-1.17c-.35.483-.852.758-1.659.764l.016 2Zm3.259-1.586c.728-.988 1.051-2.192 1.04-3.54l-2 .016c.008 1.015-.232 1.77-.65 2.337l1.61 1.187Zm1.04-3.54-.034-4.023-2 .017.034 4.022 2-.017Zm-1.042-5.015-6.681.056.016 2 6.682-.056-.017-2Zm-19.4 55.299-.487.874.002.001.485-.875Zm-6.101-6.068-.88.476.002.003.878-.479Zm-.126-17.216-.883-.47-.003.005.886.465Zm6.017-6.152-.497-.868-.004.002.501.866Zm19.619-.163.485-.874-.001-.001-.484.875Zm6.101 6.052-.878.478.001.001.877-.48Zm.143 17.215-.885-.465-.002.003.887.462Zm-6 6.169-.5-.866-.001.001.501.865Zm-4.603-8.28-.361-.932-.009.003.37.929Zm3.252-2.464-.823-.568-.007.01.83.558Zm-.065-7.926-.818.575.001.002.817-.577Zm-3.293-2.41.352-.936-.004-.002-.348.937Zm-10.585.087-.361-.932-.009.003.37.93Zm-3.252 2.465-.824-.568-.006.01.83.558Zm.065 7.926-.817.575.001.002.816-.577Zm3.293 2.41.352-.936-.004-.001-.348.937Zm5.381 9.541c-3.759.031-6.864-.674-9.36-2.06l-.971 1.749c2.869 1.592 6.334 2.344 10.347 2.311l-.016-2Zm-9.359-2.059c-2.515-1.402-4.41-3.292-5.711-5.675l-1.755.959c1.491 2.731 3.665 4.887 6.492 6.463l.974-1.747Zm-5.709-5.672c-1.301-2.4-1.971-5.095-1.996-8.105l-2 .016c.027 3.308.768 6.329 2.237 9.042l1.759-.953Zm-1.996-8.105c-.025-3.033.606-5.749 1.876-8.17l-1.771-.929c-1.437 2.739-2.133 5.784-2.105 9.115l2-.016Zm1.874-8.165c1.273-2.394 3.142-4.311 5.635-5.756l-1.002-1.73c-2.8 1.621-4.942 3.806-6.399 6.548l1.766.938Zm5.631-5.753c2.475-1.418 5.557-2.169 9.294-2.2l-.017-2c-3.991.034-7.43.837-10.271 2.464l.994 1.736Zm9.294-2.2c3.76-.03 6.859.67 9.344 2.044l.968-1.75c-2.858-1.581-6.317-2.327-10.329-2.294l.017 2Zm9.342 2.043c2.528 1.403 4.42 3.287 5.709 5.656l1.757-.956c-1.481-2.722-3.656-4.873-6.495-6.448l-.971 1.748Zm5.71 5.657c1.31 2.4 1.986 5.104 2.011 8.137l2-.017c-.027-3.33-.774-6.364-2.256-9.079l-1.755.96Zm2.011 8.137c.025 3.008-.606 5.713-1.876 8.134l1.771.93c1.436-2.738 2.133-5.772 2.105-9.08l-2 .016Zm-1.878 8.137c-1.249 2.401-3.11 4.321-5.613 5.765l1 1.733c2.813-1.624 4.952-3.816 6.387-6.574l-1.774-.924Zm-5.614 5.766c-2.462 1.426-5.547 2.183-9.306 2.214l.016 2c4.014-.033 7.461-.843 10.292-2.483l-1.002-1.731Zm-9.371-5.536c2.173-.018 4.064-.322 5.639-.95l-.74-1.858c-1.279.51-2.907.792-4.915.808l.016 2Zm5.63-.946c1.595-.618 2.858-1.555 3.721-2.84l-1.66-1.115c-.596.887-1.5 1.593-2.783 2.09l.722 1.865Zm3.715-2.83c.879-1.275 1.283-2.808 1.269-4.54l-2 .017c.011 1.405-.313 2.514-.916 3.388l1.647 1.135Zm1.269-4.54c-.015-1.731-.444-3.26-1.342-4.53l-1.633 1.154c.62.877.963 1.989.975 3.393l2-.016Zm-1.341-4.529c-.883-1.255-2.159-2.169-3.758-2.77l-.704 1.871c1.296.488 2.216 1.182 2.827 2.05l1.635-1.15Zm-3.762-2.772c-1.584-.588-3.476-.855-5.647-.837l.016 2c2.011-.017 3.646.233 4.935.712l.696-1.875Zm-5.647-.837c-2.172.018-4.064.316-5.647.93l.722 1.865c1.294-.502 2.931-.778 4.941-.795l-.016-2Zm-5.656.933c-1.578.629-2.834 1.562-3.706 2.826l1.647 1.136c.61-.885 1.522-1.595 2.799-2.104l-.74-1.858Zm-3.712 2.836c-.863 1.284-1.26 2.818-1.245 4.547l2-.017c-.012-1.407.308-2.527.905-3.414l-1.66-1.116Zm-1.245 4.547c.014 1.728.436 3.252 1.323 4.512l1.635-1.15c-.608-.865-.947-1.971-.958-3.379l-2 .017Zm1.324 4.514c.893 1.264 2.168 2.179 3.761 2.77l.696-1.874c-1.279-.476-2.2-1.168-2.824-2.05l-1.633 1.154Zm3.757 2.769c1.596.6 3.495.873 5.668.855l-.016-2c-2.009.017-3.648-.238-4.948-.727l-.704 1.872Zm23.403 34.503 1-.008-.009-1-1 .008.009 1Zm.078 9.477.009 1 1-.008-.009-1-1 .008Zm-29.282-1.666.541-.841-.001-.001-.54.842Zm-4.526-5.247-.904.427.001.004.903-.431Zm-.131-15.783-.91-.416-.001.004.911.412Zm4.439-5.321-.548-.837-.006.004.554.833Zm29.25-2.118 1-.008-.008-1-1 .008.008 1Zm.079 9.477.008 1 1-.009-.008-1-1 .009Zm-24.437.918-.495-.868-.005.003.5.865Zm-1.96 1.994-.874-.486-.003.005.877.481Zm.048 5.795-.866.501.866-.501Zm1.993 1.961-.486.874.005.003.481-.877Zm23.449.522.078 9.476 2-.016-.078-9.477-2 .017Zm1.07 8.468-22.363.186.017 2 22.363-.186-.017-2Zm-22.363.186c-2.493.02-4.602-.556-6.37-1.693l-1.082 1.682c2.141 1.376 4.644 2.034 7.469 2.011l-.017-2Zm-6.371-1.694c-1.772-1.136-3.162-2.737-4.164-4.836l-1.805.862c1.149 2.406 2.778 4.304 4.89 5.658l1.079-1.684Zm-4.162-4.832c-.991-2.098-1.514-4.571-1.538-7.443l-2 .017c.026 3.105.592 5.873 1.73 8.28l1.808-.854Zm-1.538-7.443c-.024-2.896.458-5.388 1.414-7.501l-1.822-.824c-1.098 2.426-1.618 5.215-1.592 8.342l2-.017Zm1.412-7.497c.967-2.116 2.33-3.739 4.083-4.905l-1.107-1.665c-2.089 1.389-3.686 3.313-4.795 5.738l1.819.832Zm4.078-4.901c1.749-1.146 3.851-1.748 6.348-1.769l-.017-2c-2.821.024-5.311.71-7.427 2.096l1.096 1.673Zm6.348-1.769 22.363-.185-.017-2-22.363.185.017 2Zm21.354-1.177.079 9.477 2-.017-.079-9.476-2 .016Zm1.071 8.469-21.545.179.016 1.999 21.545-.178-.016-2Zm-21.545.179c-1.232.01-2.367.293-3.379.871l.991 1.737c.685-.391 1.478-.601 2.404-.609l-.016-1.999Zm-3.384.874a6.166 6.166 0 0 0-2.334 2.373l1.747.972a4.174 4.174 0 0 1 1.588-1.614l-1.001-1.731Zm-2.337 2.378c-.561 1.021-.825 2.161-.815 3.393l2-.017c-.008-.927.189-1.723.568-2.414l-1.753-.962Zm-.815 3.393c.01 1.241.293 2.379.874 3.384l1.731-1.001c-.387-.669-.597-1.459-.605-2.4l-2 .017Zm.874 3.384a6.166 6.166 0 0 0 2.373 2.334l.973-1.748a4.168 4.168 0 0 1-1.615-1.587l-1.731 1.001Zm2.378 2.337c1.022.561 2.161.825 3.393.815l-.016-2c-.927.008-1.723-.189-2.414-.568l-.963 1.753Zm3.393.815 21.545-.179-.017-2-21.544.179.016 2Zm14.009 11.911-.009-1-1 .008.009 1 1-.008Zm7.636-.063 1-.009-.009-1-1 .009.009 1Zm.251 30.34.009 1 1-.009-.009-1-1 .009Zm-7.636.063-1 .008.009 1 1-.008-.009-1Zm-.087-10.5 1-.008-.008-1-1 .008.008 1Zm-27.272.227-1 .008.009 1 1-.008-.009-1Zm-.077-9.341-.008-1-1 .008.008 1 1-.008Zm27.272-.226.008 1 1-.009-.008-1-1 .009Zm-.079-9.5 7.636-.063-.017-2-7.636.063.017 2Zm6.628-1.055.251 30.34 2-.017-.251-30.34-2 .017Zm1.243 29.332-7.636.063.017 2 7.636-.063-.017-2Zm-6.628 1.055-.087-10.5-2 .017.087 10.499 2-.016Zm-1.095-11.492-27.272.227.017 2 27.272-.227-.017-2Zm-26.264 1.218-.077-9.34-2 .016.077 9.341 2-.017Zm-1.069-8.332 27.272-.226-.017-2-27.271.226.016 2Zm28.264-1.235-.087-10.499-2 .016.087 10.5 2-.017Zm7.081 53.573 1-.008-.009-1-1 .008.009 1Zm.078 9.477.009 1 1-.009-.009-1-1 .009Zm-29.281-1.666.54-.842h-.001l-.539.842Zm-4.527-5.247-.904.427.001.004.903-.431Zm-.131-15.784-.909-.416-.002.004.911.412Zm4.439-5.321-.548-.836-.006.003.554.833Zm29.25-2.118 1-.008-.008-1-1 .008.008 1Zm.079 9.477.008 1 1-.008-.008-1-1 .008Zm-24.436.919-.496-.868-.005.002.501.866Zm-1.961 1.994-.874-.487-.003.005.877.482Zm.048 5.795-.866.501.866-.501Zm1.993 1.961-.486.873.005.003.481-.876Zm23.449.521.078 9.477 2-.017-.078-9.476-2 .016Zm1.07 8.469-22.363.185.017 2 22.363-.185-.017-2Zm-22.363.185c-2.493.021-4.602-.556-6.37-1.693l-1.081 1.683c2.14 1.376 4.643 2.034 7.468 2.01l-.017-2Zm-6.371-1.693c-1.772-1.137-3.162-2.737-4.164-4.836l-1.805.862c1.149 2.406 2.778 4.303 4.89 5.657l1.079-1.683Zm-4.162-4.832c-.991-2.098-1.514-4.571-1.538-7.443l-2 .016c.026 3.105.593 5.874 1.73 8.281l1.808-.854Zm-1.538-7.443c-.024-2.896.458-5.388 1.414-7.502l-1.822-.824c-1.098 2.427-1.617 5.216-1.592 8.342l2-.016Zm1.412-7.498c.968-2.115 2.33-3.738 4.084-4.904l-1.108-1.666c-2.089 1.389-3.686 3.313-4.794 5.738l1.818.832Zm4.078-4.9c1.749-1.146 3.851-1.748 6.348-1.769l-.017-2c-2.821.023-5.311.709-7.427 2.096l1.096 1.673Zm6.348-1.769 22.363-.186-.017-2-22.363.186.017 2Zm21.354-1.177.079 9.477 2-.017-.079-9.477-2 .017Zm1.071 8.468-21.545.179.017 2 21.544-.179-.016-2Zm-21.545.179c-1.232.01-2.367.294-3.379.872l.991 1.736c.685-.39 1.478-.6 2.405-.608l-.017-2Zm-3.384.874a6.173 6.173 0 0 0-2.334 2.373l1.748.973a4.158 4.158 0 0 1 1.587-1.614l-1.001-1.732Zm-2.337 2.378c-.561 1.022-.825 2.161-.815 3.394l2-.017c-.008-.927.189-1.723.568-2.414l-1.753-.963Zm-.815 3.394c.01 1.241.293 2.379.874 3.384l1.731-1.002c-.386-.669-.597-1.459-.605-2.399l-2 .017Zm.874 3.384a6.17 6.17 0 0 0 2.373 2.333l.973-1.747a4.17 4.17 0 0 1-1.615-1.588l-1.731 1.002Zm2.378 2.336c1.022.561 2.161.826 3.393.816l-.016-2c-.927.007-1.723-.189-2.414-.569l-.963 1.753Zm3.393.816 21.545-.179-.017-2-21.544.179.016 2Zm10.9 31.71-.088-.996-.919.081.007.923 1-.008Zm2.649-1.301-.768-.64-.005.006.773.634Zm.548-5.834-.935.355.004.01.931-.365Zm-.949-1.356.59-.807-.59.807Zm-1.367-.449-.046.999.016.001h.016l.014-1Zm-1.141.232-.454-.891-.018.009-.018.01.49.872Zm-.896.859-.822-.57-.005.009-.006.008.833.553Zm-1.265 3.642.979.201.002-.008-.981-.193Zm-.59 2.868-.98-.201v.002l.98.199Zm-3.919 8.368-.7-.714-.004.004.704.71Zm-3.018 1.951-.35-.936-.008.003.358.933Zm-3.677.679.004 1h.013l-.017-1Zm-5.843-1.673-.575.818.575-.818Zm-3.671-4.845.927-.373v-.002l-.927.375Zm-.027-15.529-.932-.363v.002l.932.361Zm4.098-5.284-.558-.83-.005.004.563.826Zm7.178-1.935 1-.008-.009-1.004-1.003.012.012 1Zm.075 9 .061.998.946-.058-.008-.948-.999.008Zm-2.687.823-.556-.831.556.831Zm-1.637 2.025-.92-.39-.002.004.922.386Zm-.14 5.661-.936.352.936-.352Zm1.052 1.542-.615.788.615-.788Zm1.522.533-.012 1h.042l-.03-1Zm1.393-.54-.633-.773-.012.009-.012.01.657.754Zm1.078-1.645-.921-.39-.005.012.926.378Zm.894-3.093.979.206.001-.003-.98-.203Zm.722-3.483-.979-.204-.001.001.98.203Zm3.297-7.34-.752-.659-.005.005.757.654Zm6.438-2.696.004 1h.009l-.013-1Zm5.827 1.725.578-.816-.001-.001-.577.817Zm3.944 4.961.914-.407-.001-.002-.913.409Zm.105 14.659-.912-.409.912.409Zm-3.949 4.789-.551-.835-.007.005.558.83Zm-5.969 1.754-1 .008.009 1.005 1.005-.013-.014-1Zm.013-8.072c1.36-.12 2.507-.656 3.333-1.662L212.877 244c-.434.527-1.052.858-1.964.939l.176 1.992Zm3.328-1.656c.847-1.015 1.172-2.438 1.159-4.083l-2 .017c.012 1.423-.281 2.289-.694 2.785l1.535 1.281Zm1.159-4.083c-.009-1.048-.143-1.98-.447-2.756l-1.862.729c.183.47.301 1.137.309 2.044l2-.017Zm-.443-2.747c-.28-.736-.695-1.371-1.294-1.808l-1.18 1.615c.201.147.419.416.604.903l1.87-.71Zm-1.294-1.808a3.309 3.309 0 0 0-1.943-.641l-.028 1.999c.311.005.564.091.791.257l1.18-1.615Zm-1.912-.64a3.233 3.233 0 0 0-1.64.339l.909 1.781c.169-.086.374-.135.64-.123l.091-1.997Zm-1.676.358c-.489.275-.893.679-1.228 1.161l1.644 1.14c.205-.295.398-.464.565-.558l-.981-1.743Zm-1.239 1.178c-.318.478-.586 1.056-.815 1.712l1.889.66c.192-.552.394-.967.592-1.265l-1.666-1.107Zm-.815 1.712c-.23.661-.428 1.426-.598 2.289l1.962.387c.157-.799.333-1.468.525-2.016l-1.889-.66Zm-.597 2.281-.59 2.869 1.959.403.59-2.869-1.959-.403Zm-.59 2.871c-.381 1.877-.885 3.453-1.501 4.742l1.805.862c.703-1.473 1.251-3.212 1.656-5.206l-1.96-.398Zm-1.501 4.742c-.618 1.296-1.335 2.325-2.138 3.111l1.399 1.429c1.001-.98 1.845-2.214 2.544-3.678l-1.805-.862Zm-2.142 3.115a7.467 7.467 0 0 1-2.664 1.725l.699 1.873a9.457 9.457 0 0 0 3.373-2.177l-1.408-1.421Zm-2.672 1.728c-1.002.383-2.11.591-3.336.612l.034 2c1.434-.025 2.776-.269 4.017-.745l-.715-1.867Zm-3.322.612c-2.126.007-3.863-.507-5.266-1.492l-1.149 1.637c1.798 1.262 3.956 1.863 6.422 1.855l-.007-2Zm-5.266-1.492c-1.417-.995-2.531-2.442-3.318-4.399l-1.855.746c.907 2.256 2.241 4.039 4.024 5.29l1.149-1.637Zm-3.318-4.401c-.788-1.949-1.211-4.343-1.235-7.208l-2 .017c.026 3.043.474 5.699 1.381 7.941l1.854-.75Zm-1.235-7.208c-.024-2.938.39-5.459 1.214-7.585l-1.865-.722c-.935 2.412-1.374 5.193-1.349 8.324l2-.017Zm1.213-7.583c.812-2.085 2.057-3.679 3.73-4.821l-1.127-1.652c-2.034 1.388-3.521 3.318-4.467 5.747l1.864.726Zm3.725-4.817c1.661-1.118 3.848-1.731 6.631-1.765l-.024-2c-3.058.038-5.656.714-7.724 2.105l1.117 1.66Zm5.619-2.756.075 8.999 1.999-.016-.074-9-2 .017Zm1.013 7.993c-1.204.074-2.28.388-3.181.99l1.112 1.663c.546-.365 1.26-.6 2.192-.657l-.123-1.996Zm-3.181.99c-.898.6-1.564 1.435-2.001 2.466l1.841.781c.298-.703.724-1.218 1.272-1.584l-1.112-1.663Zm-2.003 2.47c-.432 1.032-.625 2.213-.614 3.519l2-.017c-.009-1.104.155-2.004.459-2.729l-1.845-.773Zm-.614 3.519c.009 1.086.15 2.056.46 2.88l1.872-.704c-.202-.536-.324-1.256-.332-2.193l-2 .017Zm.46 2.88c.302.804.746 1.489 1.373 1.978l1.231-1.576c-.266-.207-.523-.55-.732-1.106l-1.872.704Zm1.373 1.978a3.451 3.451 0 0 0 2.125.745l.024-2a1.452 1.452 0 0 1-.918-.321l-1.231 1.576Zm2.167.745a3.153 3.153 0 0 0 2.02-.786l-1.314-1.508a1.156 1.156 0 0 1-.766.295l.06 1.999Zm1.997-.766c.588-.482 1.027-1.203 1.369-2.041l-1.851-.756c-.282.689-.561 1.066-.785 1.25l1.267 1.547Zm1.365-2.03c.358-.847.672-1.948.952-3.276l-1.957-.412c-.267 1.267-.55 2.229-.837 2.909l1.842.779Zm.953-3.279.721-3.484-1.959-.405-.721 3.483 1.959.406Zm.721-3.482c.621-2.983 1.663-5.258 3.074-6.89l-1.513-1.308c-1.695 1.961-2.851 4.58-3.519 7.79l1.958.408Zm3.07-6.885c1.347-1.537 3.202-2.345 5.69-2.355l-.008-2c-2.967.012-5.404 1.002-7.186 3.037l1.504 1.318Zm5.699-2.355c2.023-.027 3.755.494 5.237 1.541l1.154-1.633c-1.856-1.312-4.009-1.94-6.418-1.908l.027 2Zm5.236 1.54c1.516 1.075 2.724 2.58 3.61 4.555l1.825-.818c-1.013-2.259-2.435-4.062-4.279-5.368l-1.156 1.631Zm3.609 4.554c.884 1.982 1.35 4.287 1.372 6.935l2-.016c-.024-2.874-.53-5.459-1.545-7.734l-1.827.815Zm1.372 6.935c.023 2.709-.412 5.002-1.266 6.907l1.824.818c.998-2.224 1.466-4.814 1.442-7.741l-2 .016Zm-1.266 6.907c-.857 1.91-2.056 3.351-3.588 4.363l1.102 1.669c1.882-1.243 3.315-2.995 4.31-5.214l-1.824-.818Zm-3.595 4.368c-1.515 1.018-3.31 1.556-5.424 1.584l.027 2c2.454-.033 4.638-.664 6.513-1.924l-1.116-1.66Zm-4.411 2.575-.075-9.067-2 .016.075 9.068 2-.017Z" fill="#05C2DF" fill-opacity=".2" mask="url('#path-3-outside-2_3495_3196')"/><mask id="path-5-outside-3_3495_3196" maskUnits="userSpaceOnUse" x="96.907" y="2.51" width="41.098" height="253.315" fill="#000"><path fill="#fff" d="M96.907 2.51h41.098v253.315H96.907z"/><path d="m135.902 243.2.085 10.227-35.004-11.233-.107-12.954 34.812-11.812.085 10.227-25.231 7.846.002.273 25.358 7.426Zm-13.756 2.023-.16-19.226 7.091-.059.159 19.227-7.09.058Zm13.514-31.157-34.907.29-.126-15.136c-.022-2.659.317-4.895 1.018-6.708.701-1.824 1.701-3.201 3-4.133 1.299-.942 2.835-1.421 4.608-1.436 1.284-.01 2.456.264 3.518.824a7.528 7.528 0 0 1 2.679 2.33c.712 1.005 1.211 2.183 1.495 3.533l.341-.003c.044-1.5.413-2.867 1.108-4.1a7.842 7.842 0 0 1 2.856-2.956c1.21-.737 2.639-1.113 4.286-1.126 1.909-.016 3.612.47 5.109 1.457 1.497.977 2.679 2.376 3.546 4.198.868 1.823 1.312 4.001 1.333 6.535l.136 16.431Zm-7.646-9.414-.037-4.432c-.013-1.59-.318-2.781-.916-3.572-.609-.79-1.498-1.181-2.669-1.171-.818.007-1.51.2-2.075.58-.565.38-.992.917-1.282 1.613-.29.684-.43 1.509-.422 2.475l.037 4.568 7.364-.061Zm-13.227.11-.032-3.886c-.007-.83-.144-1.562-.41-2.196-.267-.634-.646-1.125-1.138-1.474-.503-.359-1.112-.536-1.828-.53-1.08.009-1.9.402-2.462 1.18-.573.777-.855 1.757-.845 2.939l.033 4.022 6.682-.055Zm2.873-56.429c3.886-.033 7.171.696 9.854 2.185 2.671 1.489 4.705 3.512 6.101 6.069 1.385 2.557 2.091 5.415 2.117 8.573.026 3.182-.637 6.063-1.991 8.642-1.365 2.569-3.371 4.619-6.017 6.153-2.658 1.522-5.919 2.299-9.782 2.331-3.887.032-7.165-.691-9.837-2.169-2.683-1.489-4.717-3.506-6.101-6.051-1.397-2.557-2.108-5.426-2.134-8.608-.027-3.159.637-6.028 1.991-8.608 1.342-2.579 3.342-4.636 6-6.169 2.646-1.533 5.913-2.316 9.799-2.348Zm.081 9.749c-2.091.018-3.85.311-5.277.879-1.439.558-2.523 1.379-3.253 2.465-.741 1.074-1.105 2.395-1.092 3.964.013 1.568.399 2.888 1.158 3.962.748 1.062 1.845 1.865 3.293 2.41 1.436.534 3.2.792 5.291.774 2.091-.017 3.855-.304 5.294-.862 1.427-.569 2.511-1.39 3.252-2.464.73-1.086 1.088-2.413 1.075-3.981-.013-1.568-.393-2.883-1.14-3.945-.759-1.074-1.857-1.877-3.293-2.411-1.448-.544-3.217-.808-5.308-.791Zm-17.743-34.648-.078-9.477 22.362-.185c2.659-.022 4.966.595 6.919 1.851 1.943 1.246 3.452 2.995 4.527 5.247 1.064 2.253 1.609 4.873 1.634 7.862.025 3.011-.476 5.652-1.503 7.922-1.038 2.27-2.518 4.044-4.439 5.321-1.933 1.266-4.229 1.91-6.888 1.932l-22.362.186-.079-9.477 21.545-.179c1.079-.009 2.043-.256 2.891-.74a5.161 5.161 0 0 0 1.961-1.994c.47-.856.701-1.824.692-2.903-.009-1.091-.256-2.055-.74-2.892a5.168 5.168 0 0 0-1.994-1.961c-.856-.47-1.824-.7-2.903-.692l-21.545.179Zm7.528-13.09-7.636.064-.252-30.34 7.637-.064.087 10.5 27.271-.226.078 9.34-27.272.227.087 10.499Zm-8.168-64.063-.079-9.477 22.363-.186c2.659-.022 4.966.595 6.919 1.852 1.943 1.245 3.451 2.994 4.527 5.247 1.064 2.252 1.609 4.873 1.633 7.861.025 3.012-.475 5.652-1.502 7.922-1.038 2.27-2.518 4.044-4.439 5.321-1.933 1.266-4.229 1.91-6.888 1.933l-22.362.185-.08-9.477 21.546-.179c1.079-.009 2.043-.255 2.891-.74a5.163 5.163 0 0 0 1.961-1.993c.47-.856.701-1.824.692-2.904-.009-1.09-.256-2.055-.74-2.892a5.163 5.163 0 0 0-1.994-1.96c-.856-.47-1.824-.701-2.903-.692l-21.545.179Zm10.637-32.89c-1.136.1-2.019.534-2.649 1.3-.63.756-.939 1.9-.926 3.435.008.977.134 1.777.378 2.4.232.612.549 1.064.949 1.356.4.292.856.442 1.367.449.421.02.801-.058 1.14-.231.328-.185.627-.471.897-.86.258-.388.492-.885.703-1.489.211-.604.398-1.321.562-2.152l.59-2.869c.393-1.935.919-3.593 1.578-4.973s1.439-2.512 2.341-3.395a8.462 8.462 0 0 1 3.018-1.951c1.122-.43 2.347-.656 3.677-.678 2.295-.008 4.243.55 5.843 1.673 1.6 1.123 2.824 2.738 3.671 4.845.847 2.095 1.283 4.62 1.307 7.574.026 3.034-.401 5.686-1.28 7.954-.879 2.258-2.245 4.02-4.099 5.285-1.864 1.254-4.257 1.898-7.177 1.934l-.075-9c1.068-.065 1.964-.34 2.687-.823.723-.483 1.269-1.158 1.636-2.025.368-.878.547-1.92.537-3.124-.008-1.011-.14-1.857-.396-2.537-.256-.68-.606-1.193-1.053-1.542a2.452 2.452 0 0 0-1.521-.533 2.152 2.152 0 0 0-1.393.54c-.407.333-.766.881-1.078 1.646-.323.764-.621 1.795-.895 3.092l-.721 3.484c-.644 3.096-1.743 5.543-3.297 7.34-1.565 1.786-3.711 2.684-6.438 2.695-2.216.03-4.158-.545-5.827-1.724-1.68-1.19-2.995-2.845-3.945-4.962-.95-2.128-1.435-4.573-1.458-7.335-.024-2.818.428-5.259 1.354-7.324.926-2.064 2.242-3.66 3.949-4.788 1.695-1.14 3.685-1.724 5.968-1.754l.076 9.067Z"/></mask><path d="m135.902 243.2 1-.008-.006-.743-.713-.209-.281.96Zm.085 10.227-.306.952 1.317.423-.011-1.383-1 .008Zm-35.004-11.233-1 .009.007.723.688.221.305-.953Zm-.107-12.954-.321-.947-.685.233.006.723 1-.009Zm34.812-11.812 1-.008-.011-1.383-1.31.444.321.947Zm.085 10.227.297.955.709-.22-.006-.743-1 .008Zm-25.231 7.846-.297-.955-.709.221.006.742 1-.008Zm.002.273-1 .008.006.743.713.209.281-.96Zm11.602 9.449-1 .009.008 1 1-.009-.008-1Zm-.16-19.226-.008-1-1 .008.008 1 1-.008Zm7.091-.059 1-.008-.008-1-1 .008.008 1Zm.159 19.227.009 1 1-.009-.009-1-1 .009Zm5.666-1.957.085 10.227 2-.016-.085-10.227-2 .016Zm1.391 9.267-35.004-11.233-.611 1.905 35.003 11.232.612-1.904Zm-34.31-10.289-.107-12.954-2 .017.108 12.954 1.999-.017Zm-.786-11.999 34.813-11.812-.643-1.894-34.812 11.812.642 1.894Zm33.491-12.75.085 10.226 2-.016-.085-10.227-2 .017Zm.788 9.263-25.231 7.846.594 1.91 25.231-7.846-.594-1.91Zm-25.934 8.809.002.273 2-.016-.002-.273-2 .016Zm.721 1.225 25.358 7.426.562-1.92-25.358-7.426-.562 1.92Zm12.883 8.481-.16-19.226-2 .016.16 19.227 2-.017Zm-1.152-18.218 7.091-.059-.016-2-7.091.059.016 2Zm6.083-1.051.159 19.227 2-.017-.159-19.226-2 .016Zm1.151 18.219-7.091.058.017 2 7.091-.058-.017-2Zm6.432-30.099.009 1 1-.008-.009-1-1 .008Zm-34.907.29-1 .008.008 1 1-.008-.008-1Zm.892-21.844.933.361.001-.002-.934-.359Zm3-4.133.583.813.004-.003-.587-.81Zm8.126-.612-.466.884.007.004.459-.888Zm2.679 2.33.815-.579-.004-.006-.811.585Zm1.495 3.533-.979.206.169.801.818-.007-.008-1Zm.341-.003.008 1 .963-.008.028-.962-.999-.03Zm1.108-4.1.871.49.004-.006-.875-.484Zm2.856-2.956.517.856.003-.002-.52-.854Zm9.395.331-.551.835.005.003.546-.838Zm3.546 4.198-.903.43.903-.43Zm-6.177 13.552.008 1 1-.008-.008-1-1 .008Zm-.953-8.004.798-.603-.006-.007-.792.61Zm-6.026 1.022.921.39.002-.006-.923-.384Zm-.385 7.043-.999.008.008 1 1-.008-.009-1Zm-5.863.049.008 1 1-.009-.008-1-1 .009Zm-.442-6.082.921-.388-.921.388Zm-1.138-1.474-.581.814.003.002.578-.816Zm-4.29.65.805.593.006-.008-.811-.585Zm-.812 6.961-.999.008.008 1 1-.008-.009-1Zm27.547 8.249-34.908.29.017 2 34.908-.29-.017-2Zm-33.9 1.282-.125-15.136-2 .016.126 15.136 1.999-.016Zm-.125-15.136c-.021-2.577.309-4.679.951-6.339l-1.865-.721c-.76 1.965-1.109 4.335-1.086 7.076l2-.016Zm.952-6.341c.646-1.682 1.541-2.884 2.649-3.679l-1.165-1.625c-1.491 1.068-2.596 2.621-3.351 4.587l1.867.717Zm2.653-3.682c1.113-.808 2.442-1.232 4.029-1.246l-.017-2c-1.958.017-3.701.549-5.186 1.627l1.174 1.619Zm4.029-1.246c1.131-.009 2.139.231 3.044.708l.932-1.769c-1.218-.642-2.555-.95-3.993-.939l.017 2Zm3.051.712a6.533 6.533 0 0 1 2.326 2.026l1.623-1.169a8.531 8.531 0 0 0-3.031-2.634l-.918 1.777Zm2.322 2.02c.624.881 1.073 1.929 1.332 3.161l1.957-.412c-.308-1.468-.857-2.776-1.658-3.906l-1.631 1.157Zm2.319 3.955.341-.003-.017-2-.341.003.017 2Zm1.332-.973c.04-1.349.37-2.556.98-3.64l-1.743-.981c-.778 1.383-1.187 2.909-1.236 4.561l1.999.06Zm.984-3.646a6.836 6.836 0 0 1 2.498-2.584l-1.034-1.712a8.839 8.839 0 0 0-3.214 3.327l1.75.969Zm2.501-2.586c1.032-.629 2.278-.968 3.775-.98l-.017-2c-1.799.015-3.411.426-4.798 1.272l1.04 1.708Zm3.775-.98c1.723-.015 3.229.421 4.549 1.292l1.102-1.669c-1.674-1.105-3.574-1.641-5.668-1.623l.017 2Zm4.554 1.295c1.323.863 2.391 2.112 3.189 3.79l1.806-.859c-.936-1.967-2.232-3.517-3.903-4.606l-1.092 1.675Zm3.189 3.79c.791 1.662 1.216 3.689 1.236 6.113l2-.016c-.022-2.644-.486-4.973-1.43-6.956l-1.806.859Zm1.236 6.113.136 16.431 2-.016-.136-16.431-2 .016Zm-5.51 7.001-.037-4.432-2 .017.037 4.431 2-.016Zm-.037-4.432c-.014-1.685-.334-3.129-1.118-4.167l-1.596 1.206c.411.544.702 1.481.714 2.978l2-.017Zm-1.124-4.174c-.834-1.083-2.047-1.573-3.469-1.561l.016 2c.919-.007 1.486.284 1.869.782l1.584-1.221Zm-3.469-1.561c-.974.008-1.866.241-2.624.75l1.115 1.66c.372-.25.863-.404 1.525-.41l-.016-2Zm-2.624.75c-.745.501-1.291 1.202-1.648 2.058l1.846.769c.223-.534.532-.908.917-1.167l-1.115-1.66Zm-1.646 2.053c-.356.842-.51 1.81-.501 2.873l2-.016c-.008-.869.12-1.55.343-2.077l-1.842-.78Zm-.501 2.873.038 4.568 1.999-.016-.037-4.568-2 .016Zm1.046 5.56 7.363-.061-.016-2-7.364.061.017 2Zm-4.872-.96-.032-3.886-2 .017.032 3.886 2-.017Zm-.032-3.886c-.008-.933-.162-1.798-.489-2.575l-1.843.776c.207.492.326 1.09.332 1.816l2-.017Zm-.489-2.575c-.328-.781-.816-1.431-1.481-1.902l-1.156 1.632c.319.226.589.558.794 1.046l1.843-.776Zm-1.477-1.899c-.701-.501-1.526-.724-2.418-.717l.016 2c.539-.004.934.126 1.239.344l1.163-1.627Zm-2.418-.717c-1.352.011-2.491.524-3.264 1.594l1.621 1.171c.35-.484.852-.758 1.659-.765l-.016-2Zm-3.259 1.586c-.728.988-1.051 2.192-1.04 3.541l2-.017c-.008-1.015.232-1.77.65-2.337l-1.61-1.187Zm-1.04 3.541.034 4.022 1.999-.016-.033-4.023-2 .017Zm1.042 5.014 6.681-.055-.016-2-6.682.055.017 2Zm19.4-55.299.487-.874h-.002l-.485.874Zm6.101 6.069.88-.476-.002-.003-.878.479Zm.126 17.215.883.47.003-.005-.886-.465Zm-6.017 6.153.497.868.004-.003-.501-.865Zm-19.619.162-.485.875.001.001.484-.876Zm-6.101-6.051.878-.478-.001-.002-.877.48Zm-.143-17.216.885.465.002-.003-.887-.462Zm6-6.169.5.866.001-.001-.501-.865Zm4.603 8.28.361.933.009-.004-.37-.929Zm-3.253 2.465.824.568.006-.01-.83-.558Zm.066 7.926.818-.576-.001-.002-.817.578Zm3.293 2.41-.352.936.004.001.348-.937Zm10.585-.088.361.933.009-.004-.37-.929Zm3.252-2.464.823.567.007-.01-.83-.557Zm-.065-7.926.817-.576-.001-.002-.816.578Zm-3.293-2.411-.353.936.004.002.349-.938Zm-5.381-9.54c3.759-.032 6.863.673 9.36 2.059l.971-1.748c-2.869-1.593-6.334-2.345-10.347-2.311l.016 2Zm9.359 2.058c2.515 1.403 4.409 3.293 5.711 5.675l1.755-.958c-1.491-2.731-3.665-4.887-6.492-6.464l-.974 1.747Zm5.709 5.672c1.3 2.401 1.971 5.096 1.996 8.106l2-.017c-.028-3.308-.768-6.329-2.237-9.041l-1.759.952Zm1.996 8.106c.025 3.032-.606 5.748-1.876 8.169l1.771.929c1.437-2.739 2.133-5.784 2.105-9.115l-2 .017Zm-1.874 8.164c-1.273 2.394-3.142 4.312-5.636 5.756l1.003 1.731c2.8-1.622 4.942-3.806 6.399-6.548l-1.766-.939Zm-5.631 5.754c-2.475 1.417-5.558 2.168-9.294 2.199l.017 2c3.991-.033 7.43-.837 10.271-2.463l-.994-1.736Zm-9.294 2.199c-3.76.031-6.859-.669-9.344-2.044l-.968 1.751c2.858 1.581 6.317 2.326 10.329 2.293l-.017-2Zm-9.343-2.043c-2.527-1.403-4.419-3.287-5.708-5.655l-1.757.956c1.481 2.722 3.656 4.872 6.495 6.448l.97-1.749Zm-5.709-5.657c-1.31-2.399-1.986-5.104-2.011-8.136l-2 .016c.027 3.331.774 6.365 2.256 9.079l1.755-.959Zm-2.011-8.136c-.025-3.009.605-5.713 1.876-8.135l-1.771-.929c-1.436 2.737-2.133 5.771-2.105 9.08l2-.016Zm1.878-8.138c1.249-2.401 3.11-4.321 5.613-5.765l-1-1.732c-2.813 1.623-4.952 3.816-6.387 6.574l1.774.923Zm5.614-5.766c2.461-1.426 5.547-2.182 9.306-2.213l-.016-2c-4.014.033-7.461.842-10.292 2.483l1.002 1.73Zm9.371 5.536c-2.173.018-4.064.322-5.639.95l.74 1.858c1.279-.509 2.906-.791 4.915-.808l-.016-2Zm-5.63.947c-1.595.618-2.858 1.555-3.722 2.839l1.66 1.116c.596-.887 1.501-1.593 2.784-2.09l-.722-1.865Zm-3.715 2.829c-.88 1.275-1.283 2.808-1.269 4.54l2-.017c-.011-1.404.313-2.514.916-3.387l-1.647-1.136Zm-1.269 4.54c.015 1.732.444 3.261 1.342 4.531l1.633-1.155c-.62-.876-.963-1.988-.975-3.393l-2 .017Zm1.34 4.529c.884 1.256 2.16 2.169 3.759 2.771l.704-1.872c-1.296-.488-2.216-1.181-2.827-2.05l-1.636 1.151Zm3.763 2.772c1.583.589 3.476.855 5.647.837l-.017-2c-2.01.017-3.645-.233-4.934-.711l-.696 1.874Zm5.647.837c2.171-.018 4.064-.316 5.647-.929l-.722-1.865c-1.294.501-2.931.778-4.942.794l.017 2Zm5.656-.933c1.577-.628 2.834-1.562 3.705-2.826l-1.646-1.135c-.61.885-1.522 1.594-2.799 2.103l.74 1.858Zm3.712-2.836c.863-1.283 1.26-2.818 1.245-4.546l-2 .016c.012 1.408-.308 2.527-.905 3.415l1.66 1.115Zm1.245-4.546c-.014-1.729-.436-3.253-1.323-4.513l-1.635 1.151c.608.864.947 1.97.958 3.378l2-.016Zm-1.324-4.515c-.894-1.263-2.168-2.178-3.761-2.77l-.697 1.875c1.28.475 2.201 1.167 2.825 2.05l1.633-1.155Zm-3.757-2.768c-1.596-.601-3.495-.874-5.668-.856l.016 2c2.008-.016 3.648.238 4.947.727l.705-1.871Zm-23.403-34.504-1 .009.008.999 1-.008-.008-1Zm-.078-9.477-.009-1-1 .009.009 1 1-.009Zm29.281 1.666-.541.842h.002l.539-.842Zm4.527 5.247.904-.427-.002-.004-.902.431Zm.131 15.784.909.416.002-.004-.911-.412Zm-4.439 5.321.548.836.006-.003-.554-.833Zm-29.25 2.118-1 .008.008 1 1-.008-.008-1Zm-.079-9.477-.008-1-1 .008.008 1 1-.008Zm24.436-.919.496.868.005-.002-.501-.866Zm1.961-1.994.874.487.003-.005-.877-.482Zm-.048-5.795.866-.501-.866.501Zm-1.994-1.961.487-.873-.005-.003-.482.876Zm-23.448-.521-.078-9.477-2 .017.078 9.477 2-.017Zm-1.07-8.469 22.363-.185-.017-2-22.363.185.017 2Zm22.363-.185c2.493-.021 4.602.556 6.369 1.693l1.082-1.683c-2.14-1.376-4.643-2.034-7.468-2.01l.017 2Zm6.371 1.693c1.772 1.137 3.162 2.737 4.164 4.836l1.804-.862c-1.148-2.406-2.777-4.303-4.889-5.657l-1.079 1.683Zm4.162 4.832c.991 2.098 1.514 4.571 1.538 7.443l2-.016c-.026-3.105-.593-5.874-1.73-8.281l-1.808.854Zm1.538 7.443c.024 2.896-.458 5.388-1.414 7.502l1.822.824c1.098-2.427 1.617-5.216 1.592-8.342l-2 .016Zm-1.412 7.498c-.968 2.115-2.33 3.738-4.084 4.904l1.108 1.666c2.089-1.389 3.686-3.313 4.794-5.738l-1.818-.832Zm-4.078 4.9c-1.749 1.146-3.851 1.748-6.348 1.769l.017 2c2.821-.023 5.311-.709 7.427-2.096l-1.096-1.673Zm-6.348 1.769-22.363.186.017 2 22.363-.186-.017-2Zm-21.354 1.177-.079-9.477-2 .017.079 9.477 2-.017Zm-1.071-8.468 21.545-.179-.017-2-21.544.179.016 2Zm21.545-.179c1.232-.01 2.367-.294 3.379-.872l-.991-1.736c-.685.39-1.478.6-2.405.608l.017 2Zm3.384-.874a6.173 6.173 0 0 0 2.334-2.373l-1.748-.973a4.158 4.158 0 0 1-1.587 1.614l1.001 1.732Zm2.337-2.378c.561-1.022.825-2.161.815-3.394l-2 .017c.008.927-.189 1.723-.568 2.414l1.753.963Zm.815-3.394c-.01-1.241-.293-2.379-.874-3.384l-1.731 1.002c.386.669.597 1.459.605 2.399l2-.017Zm-.874-3.384a6.17 6.17 0 0 0-2.373-2.333l-.973 1.747a4.17 4.17 0 0 1 1.615 1.588l1.731-1.002Zm-2.378-2.336c-1.022-.561-2.161-.826-3.393-.815l.016 1.999c.927-.007 1.723.189 2.414.569l.963-1.753Zm-3.393-.815-21.545.178.016 2 21.545-.179-.016-1.999Zm-14.009-11.912.009 1 .999-.008-.008-1-1 .008Zm-7.636.064-1 .008.008 1 1-.008-.008-1Zm-.252-30.34-.008-1-1 .008.008 1 1-.008Zm7.637-.064.999-.008-.008-1-1 .008.009 1Zm.087 10.5-1 .008.008 1 1-.008-.008-1Zm27.271-.226 1-.009-.008-1-1 .009.008 1Zm.078 9.34.008 1 1-.008-.008-1-1 .008Zm-27.272.227-.008-1-1 .008.008 1 1-.008Zm.079 9.499-7.636.064.016 2 7.637-.064-.017-2Zm-6.628 1.055-.252-30.34-2 .017.252 30.34 2-.017Zm-1.243-29.331 7.636-.064-.017-2-7.636.064.017 2Zm6.628-1.055.087 10.5 2-.017-.088-10.5-1.999.017Zm1.095 11.491 27.272-.226-.017-2-27.272.226.017 2Zm26.263-1.218.078 9.34 2-.016-.078-9.34-2 .016Zm1.07 8.332-27.272.227.016 2 27.272-.227-.016-2Zm-28.264 1.235.087 10.5 2-.017-.087-10.5-2 .017Zm-7.08-53.572-1 .008.007 1 1-.008-.008-1Zm-.08-9.477-.008-1-1 .008.008 1 1-.008Zm29.282 1.666-.541.84.002.002.539-.842Zm4.527 5.247.904-.428-.002-.003-.902.43Zm.131 15.783.909.416.002-.004-.911-.412Zm-4.439 5.321.548.837.006-.004-.554-.833ZM99.53 66.94l-1 .008.008 1 1-.008-.008-1Zm-.08-9.477-.007-1-1 .008.008 1 1-.008Zm24.437-.919.496.869.005-.003-.501-.866Zm1.961-1.993.874.486.003-.005-.877-.481Zm-.048-5.795.866-.501-.866.5Zm-1.994-1.961.487-.874-.005-.003-.482.877Zm-23.448-.522-.079-9.477-2 .017.08 9.477 1.999-.017Zm-1.07-8.468 22.363-.186-.017-2-22.363.186.017 2Zm22.363-.186c2.493-.02 4.602.556 6.369 1.693l1.082-1.682c-2.14-1.377-4.643-2.034-7.468-2.01l.017 2Zm6.371 1.694c1.772 1.136 3.161 2.737 4.164 4.836l1.804-.862c-1.149-2.407-2.777-4.304-4.889-5.658l-1.079 1.684Zm4.162 4.832c.991 2.098 1.514 4.57 1.537 7.443l2-.017c-.025-3.105-.592-5.873-1.729-8.28l-1.808.854Zm1.537 7.443c.025 2.896-.457 5.388-1.413 7.501l1.822.824c1.098-2.426 1.617-5.215 1.591-8.342l-2 .017Zm-1.412 7.497c-.967 2.115-2.329 3.739-4.083 4.904l1.108 1.666c2.089-1.389 3.685-3.313 4.794-5.738l-1.819-.832Zm-4.077 4.9c-1.749 1.147-3.851 1.749-6.348 1.77l.017 2c2.821-.024 5.311-.71 7.427-2.096l-1.096-1.673Zm-6.348 1.77-22.363.185.017 2 22.363-.186-.017-2Zm-21.355 1.177-.078-9.477-2 .016.079 9.477 1.999-.016Zm-1.07-8.469 21.545-.179-.017-2-21.544.18.016 1.999Zm21.545-.179c1.232-.01 2.367-.293 3.379-.871l-.992-1.737c-.684.39-1.477.6-2.404.608l.017 2Zm3.384-.874a6.165 6.165 0 0 0 2.334-2.373l-1.748-.973a4.16 4.16 0 0 1-1.588 1.615l1.002 1.73Zm2.337-2.378c.561-1.021.825-2.16.815-3.393l-2 .017c.008.926-.189 1.722-.568 2.413l1.753.963Zm.815-3.393c-.01-1.241-.293-2.38-.874-3.384l-1.732 1.001c.387.669.598 1.46.606 2.4l2-.017Zm-.874-3.384a6.171 6.171 0 0 0-2.373-2.334l-.973 1.747a4.159 4.159 0 0 1 1.614 1.588l1.732-1.001Zm-2.378-2.337c-1.022-.56-2.161-.825-3.393-.815l.016 2c.927-.008 1.723.189 2.414.568l.963-1.753Zm-3.393-.815-21.545.179.016 2 21.545-.18-.016-2Zm-10.9-31.71.088.996.919-.082-.007-.923-1 .009Zm-2.649 1.3.768.64.005-.005-.773-.635Zm-.548 5.834.935-.355-.004-.01-.931.365Zm.949 1.356-.59.808.59-.808Zm1.367.449.046-.999h-.016l-.016-.001-.014 1Zm1.14-.231.455.89.018-.009.018-.01-.491-.871Zm.897-.86.821.57.006-.008.006-.008-.833-.554Zm1.265-3.641-.98-.202-.001.009.981.193Zm.59-2.869.979.202.001-.003-.98-.199Zm3.919-8.368.7.715.004-.005-.704-.71Zm3.018-1.951.35.937.008-.003-.358-.934Zm3.677-.678-.004-1h-.013l.017 1Zm5.843 1.673.575-.819-.575.819Zm3.671 4.845-.928.373.001.001.927-.374Zm.027 15.528.932.363v-.001l-.932-.362Zm-4.099 5.285.559.83.005-.005-.564-.825Zm-7.177 1.934-1 .008.008 1.004 1.004-.012-.012-1Zm-.075-9-.061-.998-.946.058.007.949 1-.009Zm2.687-.823.555.831-.555-.831Zm1.636-2.025.921.39.002-.004-.923-.386Zm.141-5.66.936-.353-.936.352Zm-1.053-1.543.616-.788-.616.788Zm-1.521-.533.012-1h-.042l.03 1Zm-1.393.54.633.774.012-.01.012-.01-.657-.754Zm-1.078 1.646.921.39.005-.013-.926-.377Zm-.895 3.092-.978-.206-.001.004.979.202Zm-.721 3.484.979.204.001-.002-.98-.202Zm-3.297 7.34.752.659.005-.005-.757-.654Zm-6.438 2.695-.004-1h-.009l.013 1Zm-5.827-1.724-.578.816h.001l.577-.816Zm-3.945-4.962-.913.408v.001l.913-.409Zm-.104-14.659.912.41-.912-.41Zm3.949-4.788.551.834.007-.004-.558-.83Zm5.968-1.754 1-.009-.008-1.005-1.005.014.013 1Zm-.012 8.071c-1.36.12-2.507.657-3.333 1.662l1.545 1.27c.434-.528 1.052-.859 1.964-.94l-.176-1.992Zm-3.329 1.656c-.846 1.015-1.171 2.438-1.158 4.083l2-.016c-.012-1.423.281-2.29.694-2.785l-1.536-1.282Zm-1.158 4.083c.009 1.048.143 1.98.447 2.757l1.862-.73c-.184-.47-.301-1.137-.309-2.043l-2 .016Zm.443 2.747c.28.736.695 1.371 1.294 1.809l1.18-1.616c-.201-.146-.419-.415-.604-.903l-1.87.71Zm1.294 1.809a3.317 3.317 0 0 0 1.943.64l.028-1.999a1.317 1.317 0 0 1-.791-.257l-1.18 1.616Zm1.912.64c.575.026 1.13-.08 1.64-.34l-.909-1.78a1.243 1.243 0 0 1-.64.122l-.091 1.998Zm1.676-.359c.489-.275.893-.68 1.227-1.161l-1.643-1.14c-.205.296-.398.464-.565.558l.981 1.743Zm1.239-1.177c.318-.479.585-1.057.814-1.713l-1.888-.66c-.193.553-.394.967-.592 1.266l1.666 1.107Zm.814-1.713c.231-.66.429-1.426.599-2.289l-1.962-.386a14.823 14.823 0 0 1-.525 2.016l1.888.659Zm.598-2.28.589-2.87-1.959-.402-.589 2.868 1.959.403Zm.59-2.872c.381-1.877.885-3.453 1.5-4.742l-1.804-.861c-.703 1.472-1.251 3.212-1.656 5.205l1.96.398Zm1.5-4.742c.619-1.296 1.336-2.325 2.139-3.11l-1.399-1.43c-1.001.98-1.845 2.214-2.544 3.679l1.804.861Zm2.143-3.115a7.453 7.453 0 0 1 2.664-1.724l-.699-1.874a9.458 9.458 0 0 0-3.373 2.178l1.408 1.42Zm2.672-1.727c1.002-.384 2.11-.592 3.335-.612l-.033-2c-1.434.024-2.776.268-4.018.744l.716 1.868Zm3.322-.612c2.126-.007 3.863.507 5.266 1.491l1.149-1.637c-1.798-1.261-3.957-1.863-6.422-1.854l.007 2Zm5.266 1.491c1.417.995 2.531 2.443 3.317 4.4l1.856-.746c-.907-2.257-2.241-4.04-4.024-5.29l-1.149 1.636Zm3.318 4.401c.788 1.95 1.211 4.343 1.234 7.209l2-.017c-.025-3.043-.474-5.7-1.38-7.941l-1.854.75Zm1.234 7.209c.025 2.937-.389 5.458-1.213 7.584l1.865.723c.935-2.412 1.374-5.194 1.348-8.324l-2 .017Zm-1.212 7.582c-.812 2.086-2.057 3.68-3.73 4.822l1.127 1.651c2.033-1.388 3.521-3.317 4.467-5.747l-1.864-.726Zm-3.725 4.818c-1.661 1.117-3.848 1.73-6.631 1.764l.024 2c3.058-.037 5.655-.714 7.724-2.105l-1.117-1.66Zm-5.619 2.756-.075-9-2 .017.075 9 2-.017Zm-1.013-7.994c1.204-.073 2.28-.388 3.18-.99l-1.111-1.663c-.546.365-1.261.6-2.192.657l.123 1.997Zm3.18-.99c.899-.6 1.565-1.435 2.002-2.465l-1.841-.782c-.298.703-.724 1.218-1.272 1.584l1.111 1.663Zm2.004-2.47c.432-1.031.625-2.213.614-3.518l-2 .016c.009 1.104-.155 2.005-.459 2.73l1.845.772Zm.614-3.518c-.009-1.086-.15-2.057-.46-2.88l-1.872.704c.202.535.324 1.256.332 2.192l2-.016Zm-.46-2.88c-.302-.804-.746-1.49-1.373-1.979l-1.231 1.576c.265.208.523.55.732 1.107l1.872-.705Zm-1.373-1.979a3.452 3.452 0 0 0-2.125-.745l-.024 2c.35.004.645.108.918.321l1.231-1.576Zm-2.167-.744a3.153 3.153 0 0 0-2.02.785l1.314 1.508c.216-.189.458-.285.765-.294l-.059-2Zm-1.997.766c-.588.482-1.027 1.202-1.37 2.04l1.852.756c.282-.689.561-1.066.785-1.25l-1.267-1.546Zm-1.365 2.029c-.358.848-.672 1.948-.952 3.276l1.957.412c.267-1.267.549-2.228.837-2.909l-1.842-.78Zm-.953 3.28-.721 3.483 1.959.405.721-3.483-1.959-.405Zm-.721 3.482c-.621 2.983-1.663 5.257-3.074 6.89l1.513 1.308c1.695-1.962 2.851-4.58 3.519-7.79l-1.958-.408Zm-3.07 6.885c-1.347 1.537-3.202 2.344-5.69 2.354l.008 2c2.967-.012 5.404-1.002 7.186-3.036l-1.504-1.318Zm-5.699 2.354c-2.024.028-3.755-.494-5.237-1.54l-1.154 1.633c1.856 1.311 4.009 1.94 6.418 1.907l-.027-2Zm-5.236-1.54c-1.517-1.075-2.724-2.58-3.61-4.555l-1.825.818c1.013 2.26 2.435 4.062 4.279 5.369l1.156-1.632Zm-3.609-4.553c-.884-1.982-1.35-4.287-1.372-6.936l-2 .017c.024 2.873.53 5.458 1.545 7.733l1.827-.814Zm-1.372-6.936c-.023-2.708.412-5.001 1.266-6.906l-1.825-.819c-.997 2.224-1.465 4.814-1.441 7.742l2-.017Zm1.266-6.906c.857-1.91 2.056-3.352 3.588-4.364L103.4 5.243c-1.882 1.244-3.315 2.995-4.31 5.214l1.824.819Zm3.595-4.368c1.515-1.018 3.31-1.556 5.424-1.584l-.027-2c-2.454.032-4.638.664-6.513 1.924l1.116 1.66Zm4.41-2.576.076 9.068 2-.017-.076-9.068-2 .017Z" fill="#05C2DF" fill-opacity=".5" mask="url('#path-5-outside-3_3495_3196')"/></svg>