<svg width="70" height="82" fill="none" xmlns="http://www.w3.org/2000/svg"><path d="M28.292.5c.505 0 .915.41.915.916v4.747h6.636c.505 0 .915.41.915.916v6.635h3.832V7.079c0-.506.409-.916.915-.916h26.427c.506 0 .915.41.915.916v73.59H16.994v-1.86a1.916 1.916 0 0 0-3.832 0v1.86H1.59l-.641-.001V27.843c0-.506.41-.916.916-.916h12.298V14.629c0-.506.41-.915.915-.915h4.747V7.079c0-.506.41-.916.916-.916h6.635V1.416c0-.506.41-.916.916-.916ZM35.623 77.5V51.073M41.623 77.427V51M47.623 77.427V51" stroke="#05C2DF" stroke-linecap="round"/><path d="M48.78 13.464c.644 0 1.165.522 1.165 1.166v1.887a1.165 1.165 0 0 1-2.33 0V14.63l.005-.12a1.166 1.166 0 0 1 1.16-1.046ZM54.444 13.464c.643 0 1.165.522 1.165 1.166v1.887a1.165 1.165 0 1 1-2.331 0V14.63l.005-.12a1.166 1.166 0 0 1 1.16-1.046ZM60.107 13.464c.643 0 1.165.522 1.165 1.166v1.887a1.165 1.165 0 1 1-2.331 0V14.63l.005-.12a1.166 1.166 0 0 1 1.16-1.046ZM48.78 22.902c.644 0 1.165.522 1.165 1.166v1.887a1.165 1.165 0 1 1-2.33 0v-1.887c0-.644.521-1.166 1.165-1.166ZM54.444 22.902c.643 0 1.165.522 1.165 1.166v1.887a1.165 1.165 0 1 1-2.331 0v-1.887c0-.644.522-1.166 1.166-1.166ZM60.107 22.902c.643 0 1.165.522 1.165 1.166v1.887a1.165 1.165 0 1 1-2.331 0v-1.887c0-.644.522-1.166 1.166-1.166ZM48.78 32.34c.644 0 1.165.522 1.165 1.166v1.888a1.165 1.165 0 1 1-2.33 0v-1.888c0-.644.521-1.166 1.165-1.166ZM54.444 32.34c.643 0 1.165.522 1.165 1.166v1.888a1.165 1.165 0 1 1-2.331 0v-1.888c0-.644.522-1.166 1.166-1.166ZM60.107 32.34c.643 0 1.165.522 1.165 1.166v1.888a1.165 1.165 0 1 1-2.331 0v-1.888c0-.644.522-1.166 1.166-1.166ZM9.14 36.115c.644 0 1.165.522 1.165 1.166v1.888a1.165 1.165 0 1 1-2.331 0V37.28c0-.644.522-1.166 1.166-1.166ZM14.803 36.115c.644 0 1.165.522 1.165 1.166v1.888a1.165 1.165 0 1 1-2.33 0V37.28c0-.644.521-1.166 1.165-1.166ZM20.466 36.115c.643 0 1.165.522 1.165 1.166v1.888a1.165 1.165 0 1 1-2.331 0V37.28c0-.644.522-1.166 1.166-1.166ZM9.14 45.553c.644 0 1.165.523 1.165 1.166v1.888a1.165 1.165 0 0 1-2.331 0V46.72c0-.644.522-1.166 1.166-1.166ZM14.803 45.553c.644 0 1.165.523 1.165 1.166v1.888a1.165 1.165 0 1 1-2.33 0V46.72c0-.644.521-1.166 1.165-1.166ZM20.466 45.553c.643 0 1.165.523 1.165 1.166v1.888a1.165 1.165 0 0 1-2.331 0V46.72c0-.644.522-1.166 1.166-1.166ZM9.14 54.992c.644 0 1.165.522 1.165 1.166v1.887a1.165 1.165 0 1 1-2.331 0v-1.887c0-.644.522-1.166 1.166-1.166ZM14.803 54.992c.644 0 1.165.522 1.165 1.166v1.887a1.165 1.165 0 1 1-2.33 0v-1.887c0-.644.521-1.166 1.165-1.166ZM20.466 54.992c.643 0 1.165.522 1.165 1.166v1.887a1.165 1.165 0 1 1-2.331 0v-1.887c0-.644.522-1.166 1.166-1.166ZM9.14 64.43c.644 0 1.165.522 1.165 1.166v1.887a1.165 1.165 0 1 1-2.331 0v-1.887c0-.644.522-1.166 1.166-1.166ZM14.803 64.43c.644 0 1.165.522 1.165 1.166v1.887a1.165 1.165 0 1 1-2.33 0v-1.887c0-.644.521-1.166 1.165-1.166ZM20.466 64.43c.643 0 1.165.522 1.165 1.166v1.887a1.165 1.165 0 1 1-2.331 0v-1.887c0-.644.522-1.166 1.166-1.166ZM60.107 41.778c.643 0 1.165.522 1.165 1.166v1.888a1.165 1.165 0 1 1-2.331 0v-1.888c0-.644.522-1.166 1.166-1.166ZM60.107 51.216c.643 0 1.165.523 1.165 1.166v1.888a1.165 1.165 0 1 1-2.331 0v-1.888c0-.644.522-1.166 1.166-1.166ZM60.107 60.654c.643 0 1.165.523 1.165 1.167v1.887a1.165 1.165 0 1 1-2.331 0v-1.887c0-.644.522-1.166 1.166-1.166ZM60.107 70.093c.643 0 1.165.522 1.165 1.166v1.887a1.165 1.165 0 1 1-2.331 0V71.26c0-.644.522-1.166 1.166-1.166Z" fill="#05C2DF" stroke="#05040B" stroke-width=".5" stroke-linecap="round"/><path d="M33.949 20H22.623" stroke="#05C2DF" stroke-linecap="round"/></svg>