<svg width="84" height="83" fill="none" xmlns="http://www.w3.org/2000/svg"><g clip-path="url('#clip0_3495_5007')" stroke="#05C2DF"><path d="M77.916 17.1a5.039 5.039 0 0 1 5.033 5.033 5.039 5.039 0 0 1-5.033 5.033 5.039 5.039 0 0 1-5.033-5.033 5.039 5.039 0 0 1 5.033-5.033ZM5.982 62.75a5.039 5.039 0 0 1 5.033 5.033 5.039 5.039 0 0 1-5.033 5.033A5.039 5.039 0 0 1 .95 67.783a5.039 5.039 0 0 1 5.033-5.033ZM74.427 18.044 63.601 12.63M62.699 72.433a5.039 5.039 0 0 1 5.033 5.034 5.039 5.039 0 0 1-5.033 5.033 5.039 5.039 0 0 1-5.033-5.033 5.039 5.039 0 0 1 5.033-5.034ZM58.935 73.605l-10.13-5.4M41.949 37.85a5.039 5.039 0 0 1 5.033 5.033 5.039 5.039 0 0 1-5.033 5.033 5.039 5.039 0 0 1-5.033-5.033 5.039 5.039 0 0 1 5.033-5.033ZM38.702 38.613l-7.94-6.135M66.849 36.467c8.114 0 14.717 6.603 14.717 14.717 0 8.113-6.603 14.716-14.717 14.716s-14.717-6.603-14.717-14.717c0-8.113 6.603-14.716 14.717-14.716Z"/><path d="M66.849 42a5.039 5.039 0 0 1 5.033 5.033 5.039 5.039 0 0 1-5.033 5.033 5.039 5.039 0 0 1-5.033-5.033A5.039 5.039 0 0 1 66.849 42ZM62.836 55.833h8.026c2.1 0 3.786 1.66 3.786 3.672v3.647a.884.884 0 0 1-.342.699l-.097.064h-.001a14.715 14.715 0 0 1-7.36 1.985c-2.41 0-4.798-.603-6.935-1.748l-.424-.237a.884.884 0 0 1-.44-.764v-3.647c0-2.01 1.686-3.67 3.787-3.67ZM33.65 53.067c8.113 0 14.716 6.603 14.716 14.716 0 8.114-6.603 14.717-14.717 14.717-8.113 0-14.716-6.603-14.716-14.717 0-8.113 6.603-14.716 14.716-14.716Z"/><path d="M33.649 58.6a5.039 5.039 0 0 1 5.033 5.033 5.039 5.039 0 0 1-5.033 5.033 5.039 5.039 0 0 1-5.033-5.033 5.039 5.039 0 0 1 5.033-5.033ZM29.636 72.433h8.027c2.1 0 3.786 1.66 3.786 3.672v3.647a.883.883 0 0 1-.343.699l-.097.064a14.715 14.715 0 0 1-7.36 1.985c-2.411 0-4.798-.603-6.936-1.748l-.423-.237a.884.884 0 0 1-.44-.764v-3.647l.004-.187c.1-1.925 1.747-3.484 3.782-3.484ZM15.666 18.483c8.113 0 14.716 6.603 14.717 14.717l-.005.379c-.202 7.94-6.725 14.338-14.712 14.338C7.552 47.917.949 41.314.949 33.2s6.603-14.717 14.717-14.717Z"/><path d="M15.666 24.017a5.039 5.039 0 0 1 5.033 5.033 5.039 5.039 0 0 1-5.033 5.033 5.039 5.039 0 0 1-5.033-5.033 5.039 5.039 0 0 1 5.033-5.033ZM11.653 37.85h8.026c2.1 0 3.786 1.66 3.786 3.672v3.646a.884.884 0 0 1-.343.7l-.096.064h-.001a14.715 14.715 0 0 1-7.36 1.984c-2.41 0-4.798-.602-6.935-1.748l-.424-.236a.884.884 0 0 1-.44-.765v-3.646l.004-.188c.101-1.925 1.747-3.483 3.783-3.483ZM48.866.5c8.114 0 14.717 6.603 14.717 14.717l-.005.379c-.202 7.94-6.725 14.337-14.712 14.338-8.114 0-14.717-6.603-14.717-14.717S40.752.5 48.866.5Z"/><path d="M48.865 6.033a5.039 5.039 0 0 1 5.033 5.033 5.039 5.039 0 0 1-5.033 5.034 5.039 5.039 0 0 1-5.033-5.034 5.039 5.039 0 0 1 5.033-5.033ZM44.853 19.867h8.026c2.1 0 3.786 1.66 3.786 3.672v3.646a.884.884 0 0 1-.343.7l-.096.064h-.001a14.716 14.716 0 0 1-7.36 1.984c-2.41 0-4.798-.603-6.935-1.748l-.424-.236a.884.884 0 0 1-.44-.765v-3.646c0-2.01 1.686-3.671 3.787-3.671ZM33.853 14.435l-8.865 7.217M66.127 36.087l-7.217-9.744M52.563 56.296l-5.562 4.33M18.793 67.483h-7.518M15.665.5A5.039 5.039 0 0 1 20.7 5.533l-.007.259a5.04 5.04 0 0 1-5.027 4.774 5.039 5.039 0 0 1-5.033-5.033A5.039 5.039 0 0 1 15.665.5ZM14.523 10.826v7.217"/></g><defs><clipPath id="clip0_3495_5007"><path fill="#fff" transform="translate(.449)" d="M0 0h83v83H0z"/></clipPath></defs></svg>