<svg width="23" height="23" fill="none" xmlns="http://www.w3.org/2000/svg"><path d="M2.113 13.598a6.146 6.146 0 0 0-.096 1.022c0 4.222 4.387 7.658 9.675 7.658 5.288 0 9.59-3.436 9.59-7.658 0-.347-.039-.687-.095-1.022.829-.47 1.374-1.4 1.374-2.46 0-1.535-1.147-2.784-2.557-2.784-.645 0-1.25.263-1.715.722-1.607-1.22-3.739-1.996-6.096-2.094l1.223-5.167 2.76 1.05c.04 1.498 1.164 2.704 2.549 2.704 1.41 0 2.557-1.249 2.557-2.784C21.282 1.249 20.135 0 18.725 0c-.983 0-1.829.614-2.257 1.502L12.526.001l-1.657 6.994c-2.23.152-4.325.917-5.859 2.08a2.433 2.433 0 0 0-1.714-.72c-1.41 0-2.558 1.248-2.558 2.784 0 1.06.545 1.989 1.375 2.46Zm13.415-2.46c1.058 0 1.918.938 1.918 2.09 0 1.15-.86 2.088-1.918 2.088-1.057 0-1.918-.937-1.918-2.089 0-1.151.86-2.088 1.918-2.088Zm-.273 6.15.547 1.259c-1.2.619-2.621.946-4.11.946-1.488 0-2.994-.327-4.194-.946l.546-1.258c2.06 1.062 5.15 1.062 7.21 0Zm-7.484-6.15c1.058 0 1.918.938 1.918 2.09 0 1.15-.86 2.088-1.918 2.088-1.058 0-1.918-.937-1.918-2.089 0-1.151.86-2.088 1.918-2.088Z" fill="#fff"/></svg>