<svg width="70" height="82" viewBox="0 0 70 82" fill="none" xmlns="http://www.w3.org/2000/svg">
<path d="M28.2917 0.5C28.7973 0.500116 29.2068 0.91022 29.2068 1.41602V6.16309H35.8425C36.3481 6.16327 36.7576 6.57335 36.7576 7.0791V13.7139H40.5896V7.0791C40.5896 6.5733 40.999 6.16326 41.5046 6.16309H67.9324C68.4379 6.1633 68.8474 6.57336 68.8474 7.0791V80.6689H16.9939V78.8086C16.9936 77.7505 16.1355 76.8936 15.0779 76.8936C14.0202 76.8936 13.1621 77.7505 13.1619 78.8086V80.6689H1.5896L0.948975 80.668V27.8428C0.948975 27.3369 1.35917 26.9268 1.86499 26.9268H14.1628V14.6289C14.163 14.1232 14.5722 13.714 15.0779 13.7139H19.825V7.0791C19.825 6.57322 20.2352 6.16313 20.741 6.16309H27.3757V1.41602C27.3757 0.910148 27.7861 0.5 28.2917 0.5Z" stroke="#05C2DF" stroke-linecap="round"/>
<path d="M35.6228 77.5V51.0731" stroke="#05C2DF" stroke-linecap="round"/>
<path d="M41.6228 77.4269V51" stroke="#05C2DF" stroke-linecap="round"/>
<path d="M47.6228 77.4269V51" stroke="#05C2DF" stroke-linecap="round"/>
<path d="M48.7803 13.4636C49.4239 13.4638 49.9453 13.9858 49.9453 14.6296V16.5173C49.9451 17.161 49.4238 17.6822 48.7803 17.6824C48.1365 17.6824 47.6144 17.161 47.6143 16.5173V14.6296L47.6201 14.5105C47.6796 13.9224 48.1766 13.4636 48.7803 13.4636Z" fill="#05C2DF" stroke="#05040B" stroke-width="0.5" stroke-linecap="round"/>
<path d="M54.4436 13.4636C55.0872 13.4638 55.6086 13.9858 55.6086 14.6296V16.5173C55.6084 17.161 55.0872 17.6822 54.4436 17.6824C53.7998 17.6824 53.2778 17.161 53.2776 16.5173V14.6296L53.2834 14.5105C53.343 13.9224 53.84 13.4636 54.4436 13.4636Z" fill="#05C2DF" stroke="#05040B" stroke-width="0.5" stroke-linecap="round"/>
<path d="M60.1067 13.4636C60.7503 13.4638 61.2717 13.9858 61.2717 14.6296V16.5173C61.2715 17.161 60.7503 17.6822 60.1067 17.6824C59.4629 17.6824 58.9408 17.161 58.9407 16.5173V14.6296L58.9465 14.5105C59.006 13.9224 59.5031 13.4636 60.1067 13.4636Z" fill="#05C2DF" stroke="#05040B" stroke-width="0.5" stroke-linecap="round"/>
<path d="M48.7803 22.9016C49.4239 22.9018 49.9453 23.4238 49.9453 24.0676V25.9553C49.9451 26.5991 49.4239 27.1202 48.7803 27.1204C48.1365 27.1204 47.6144 26.5992 47.6143 25.9553V24.0676C47.6143 23.4237 48.1365 22.9016 48.7803 22.9016Z" fill="#05C2DF" stroke="#05040B" stroke-width="0.5" stroke-linecap="round"/>
<path d="M54.4436 22.9016C55.0872 22.9018 55.6086 23.4238 55.6086 24.0676V25.9553C55.6085 26.5991 55.0872 27.1202 54.4436 27.1204C53.7998 27.1204 53.2778 26.5992 53.2776 25.9553V24.0676C53.2776 23.4237 53.7999 22.9016 54.4436 22.9016Z" fill="#05C2DF" stroke="#05040B" stroke-width="0.5" stroke-linecap="round"/>
<path d="M60.1067 22.9016C60.7503 22.9018 61.2717 23.4238 61.2717 24.0676V25.9553C61.2716 26.5991 60.7503 27.1202 60.1067 27.1204C59.4629 27.1204 58.9408 26.5992 58.9407 25.9553V24.0676C58.9407 23.4237 59.463 22.9016 60.1067 22.9016Z" fill="#05C2DF" stroke="#05040B" stroke-width="0.5" stroke-linecap="round"/>
<path d="M48.7803 32.34C49.4239 32.3401 49.9453 32.8621 49.9453 33.506V35.3937C49.9451 36.0374 49.4239 36.5585 48.7803 36.5587C48.1365 36.5587 47.6144 36.0374 47.6143 35.3937V33.506C47.6143 32.862 48.1365 32.34 48.7803 32.34Z" fill="#05C2DF" stroke="#05040B" stroke-width="0.5" stroke-linecap="round"/>
<path d="M54.4436 32.34C55.0872 32.3401 55.6086 32.8621 55.6086 33.506V35.3937C55.6085 36.0374 55.0872 36.5585 54.4436 36.5587C53.7999 36.5587 53.2778 36.0374 53.2776 35.3937V33.506C53.2776 32.862 53.7999 32.34 54.4436 32.34Z" fill="#05C2DF" stroke="#05040B" stroke-width="0.5" stroke-linecap="round"/>
<path d="M60.1067 32.34C60.7503 32.3401 61.2717 32.8621 61.2717 33.506V35.3937C61.2716 36.0374 60.7503 36.5585 60.1067 36.5587C59.4629 36.5587 58.9408 36.0374 58.9407 35.3937V33.506C58.9407 32.862 59.463 32.34 60.1067 32.34Z" fill="#05C2DF" stroke="#05040B" stroke-width="0.5" stroke-linecap="round"/>
<path d="M9.14001 36.1152C9.78359 36.1154 10.3051 36.6374 10.3051 37.2812V39.1689C10.3049 39.8127 9.78363 40.3338 9.14001 40.334C8.49641 40.334 7.97417 39.8126 7.974 39.1689V37.2812C7.974 36.6373 8.49629 36.1152 9.14001 36.1152Z" fill="#05C2DF" stroke="#05040B" stroke-width="0.5" stroke-linecap="round"/>
<path d="M14.8031 36.1152C15.4467 36.1154 15.9681 36.6374 15.9681 37.2812V39.1689C15.968 39.8127 15.4467 40.3338 14.8031 40.334C14.1594 40.334 13.6373 39.8127 13.6371 39.1689V37.2812C13.6371 36.6373 14.1594 36.1152 14.8031 36.1152Z" fill="#05C2DF" stroke="#05040B" stroke-width="0.5" stroke-linecap="round"/>
<path d="M20.4658 36.1152C21.1094 36.1154 21.6309 36.6374 21.6309 37.2812V39.1689C21.6307 39.8127 21.1094 40.3338 20.4658 40.334C19.8221 40.334 19.3 39.8127 19.2998 39.1689V37.2812C19.2998 36.6373 19.8221 36.1152 20.4658 36.1152Z" fill="#05C2DF" stroke="#05040B" stroke-width="0.5" stroke-linecap="round"/>
<path d="M9.14001 45.5533C9.78359 45.5535 10.3051 46.0755 10.3051 46.7194V48.6071C10.3049 49.2508 9.78363 49.7719 9.14001 49.7721C8.49641 49.7721 7.97417 49.2507 7.974 48.6071V46.7194C7.974 46.0754 8.49629 45.5533 9.14001 45.5533Z" fill="#05C2DF" stroke="#05040B" stroke-width="0.5" stroke-linecap="round"/>
<path d="M14.8031 45.5533C15.4467 45.5535 15.9681 46.0755 15.9681 46.7194V48.6071C15.968 49.2508 15.4467 49.7719 14.8031 49.7721C14.1594 49.7721 13.6373 49.2508 13.6371 48.6071V46.7194C13.6371 46.0754 14.1594 45.5533 14.8031 45.5533Z" fill="#05C2DF" stroke="#05040B" stroke-width="0.5" stroke-linecap="round"/>
<path d="M20.4658 45.5533C21.1094 45.5535 21.6309 46.0755 21.6309 46.7194V48.6071C21.6307 49.2508 21.1094 49.7719 20.4658 49.7721C19.8221 49.7721 19.3 49.2508 19.2998 48.6071V46.7194C19.2998 46.0754 19.8221 45.5533 20.4658 45.5533Z" fill="#05C2DF" stroke="#05040B" stroke-width="0.5" stroke-linecap="round"/>
<path d="M9.14001 54.9916C9.78359 54.9917 10.3051 55.5137 10.3051 56.1576V58.0453C10.3049 58.689 9.78364 59.2102 9.14001 59.2103C8.49639 59.2103 7.97416 58.6891 7.974 58.0453V56.1576C7.974 55.5136 8.49629 54.9916 9.14001 54.9916Z" fill="#05C2DF" stroke="#05040B" stroke-width="0.5" stroke-linecap="round"/>
<path d="M14.8031 54.9916C15.4467 54.9918 15.9681 55.5137 15.9681 56.1576V58.0453C15.968 58.689 15.4467 59.2102 14.8031 59.2103C14.1593 59.2103 13.6372 58.6891 13.6371 58.0453V56.1576C13.6371 55.5136 14.1594 54.9916 14.8031 54.9916Z" fill="#05C2DF" stroke="#05040B" stroke-width="0.5" stroke-linecap="round"/>
<path d="M20.4658 54.9916C21.1094 54.9918 21.6309 55.5137 21.6309 56.1576V58.0453C21.6307 58.689 21.1094 59.2102 20.4658 59.2103C19.8221 59.2103 19.3 58.6891 19.2998 58.0453V56.1576C19.2998 55.5136 19.8221 54.9916 20.4658 54.9916Z" fill="#05C2DF" stroke="#05040B" stroke-width="0.5" stroke-linecap="round"/>
<path d="M9.14001 64.4297C9.78359 64.4299 10.3051 64.9518 10.3051 65.5957V67.4834C10.3049 68.1271 9.78363 68.6483 9.14001 68.6484C8.49639 68.6484 7.97417 68.1272 7.974 67.4834V65.5957C7.974 64.9517 8.49629 64.4297 9.14001 64.4297Z" fill="#05C2DF" stroke="#05040B" stroke-width="0.5" stroke-linecap="round"/>
<path d="M14.8031 64.4297C15.4467 64.4299 15.9681 64.9518 15.9681 65.5957V67.4834C15.968 68.1271 15.4467 68.6483 14.8031 68.6484C14.1593 68.6484 13.6373 68.1273 13.6371 67.4834V65.5957C13.6371 64.9517 14.1594 64.4297 14.8031 64.4297Z" fill="#05C2DF" stroke="#05040B" stroke-width="0.5" stroke-linecap="round"/>
<path d="M20.4658 64.4297C21.1094 64.4299 21.6309 64.9518 21.6309 65.5957V67.4834C21.6307 68.1271 21.1094 68.6483 20.4658 68.6484C19.8221 68.6484 19.3 68.1273 19.2998 67.4834V65.5957C19.2998 64.9517 19.8221 64.4297 20.4658 64.4297Z" fill="#05C2DF" stroke="#05040B" stroke-width="0.5" stroke-linecap="round"/>
<path d="M60.1067 41.7781C60.7503 41.7782 61.2717 42.3002 61.2717 42.9441V44.8318C61.2716 45.4755 60.7503 45.9967 60.1067 45.9968C59.4629 45.9968 58.9408 45.4755 58.9407 44.8318V42.9441C58.9407 42.3001 59.463 41.7781 60.1067 41.7781Z" fill="#05C2DF" stroke="#05040B" stroke-width="0.5" stroke-linecap="round"/>
<path d="M60.1067 51.2163C60.7503 51.2165 61.2717 51.7385 61.2717 52.3823V54.27C61.2716 54.9138 60.7503 55.4349 60.1067 55.4351C59.4629 55.4351 58.9408 54.9137 58.9407 54.27V52.3823C58.9407 51.7383 59.463 51.2163 60.1067 51.2163Z" fill="#05C2DF" stroke="#05040B" stroke-width="0.5" stroke-linecap="round"/>
<path d="M60.1067 60.6545C60.7503 60.6547 61.2717 61.1767 61.2717 61.8206V63.7083C61.2716 64.352 60.7503 64.8731 60.1067 64.8733C59.4629 64.8733 58.9408 64.352 58.9407 63.7083V61.8206C58.9407 61.1766 59.463 60.6545 60.1067 60.6545Z" fill="#05C2DF" stroke="#05040B" stroke-width="0.5" stroke-linecap="round"/>
<path d="M60.1067 70.0927C60.7503 70.0928 61.2717 70.6148 61.2717 71.2587V73.1464C61.2716 73.7901 60.7503 74.3112 60.1067 74.3114C59.4629 74.3114 58.9408 73.7901 58.9407 73.1464V71.2587C58.9407 70.6147 59.463 70.0927 60.1067 70.0927Z" fill="#05C2DF" stroke="#05040B" stroke-width="0.5" stroke-linecap="round"/>
<path d="M33.9487 20H22.6228" stroke="#05C2DF" stroke-linecap="round"/>
</svg>
